<svg width="25" height="24" viewBox="0 0 25 24" fill="none" xmlns="http://www.w3.org/2000/svg">
<path fill-rule="evenodd" clip-rule="evenodd" d="M12.0008 22.7375C6.07964 22.7375 1.26265 17.9208 1.26265 12.0001C1.26265 6.07806 6.07964 1.26265 12.0008 1.26265C17.9219 1.26265 22.7389 6.07806 22.7389 12.0001C22.7389 17.9208 17.9219 22.7375 12.0008 22.7375ZM20.4883 3.51429C18.2219 1.24807 15.2077 0 12.0014 0C8.79514 0 5.78215 1.24807 3.51452 3.51429C1.24688 5.78052 0 8.79457 0 11.9994C0 15.2042 1.24815 18.2182 3.51452 20.4857C5.78089 22.7532 8.79514 24 12.0014 24C15.2077 24 18.2207 22.7519 20.4883 20.4857C22.7559 18.2195 24.0028 15.2054 24.0028 11.9994C24.0028 8.79331 22.7547 5.78052 20.4883 3.51429Z" fill="#767676"/>
<path fill-rule="evenodd" clip-rule="evenodd" d="M19.5804 11.3684H12.6322V4.42067C12.6322 4.07202 12.3492 3.78906 12.0006 3.78906C11.6519 3.78906 11.3689 4.07202 11.3689 4.42067V11.3684H4.42072C4.07204 11.3684 3.78906 11.6514 3.78906 12C3.78906 12.3487 4.07204 12.6316 4.42072 12.6316H11.3689V19.5794C11.3689 19.9268 11.6519 20.211 12.0006 20.211C12.3492 20.211 12.6322 19.9268 12.6322 19.5794V12.6316H19.5804C19.9291 12.6316 20.212 12.3487 20.212 12C20.212 11.6514 19.9291 11.3684 19.5804 11.3684Z" fill="#767676"/>
</svg>
