<svg width="42" height="44" viewBox="0 0 42 44" fill="none" xmlns="http://www.w3.org/2000/svg">
<path d="M21 43C32.0457 43 41 34.0457 41 23C41 11.9543 32.0457 3 21 3C9.9543 3 1 11.9543 1 23C1 34.0457 9.9543 43 21 43Z" stroke="#0202EA" stroke-width="1.90234" stroke-linecap="round" stroke-linejoin="round"/>
<path d="M21.0245 22.7328C23.7212 22.7328 25.9072 20.5468 25.9072 17.8502C25.9072 15.1535 23.7212 12.9675 21.0245 12.9675C18.3279 12.9675 16.1418 15.1535 16.1418 17.8502C16.1418 20.5468 18.3279 22.7328 21.0245 22.7328Z" stroke="#0202EA" stroke-width="1.90234" stroke-linecap="round" stroke-linejoin="round"/>
<path d="M33.9106 38.2703C32.4648 31.4473 27.2524 27.1606 21.0254 27.1606C14.7983 27.1606 9.56689 31.4663 8.13379 38.3084" stroke="#0202EA" stroke-width="1.90234" stroke-linecap="round" stroke-linejoin="round"/>
<path d="M25.9783 28.429V32.9248" stroke="#0202EA" stroke-width="1.90234" stroke-linecap="round" stroke-linejoin="round"/>
<path d="M16.3005 28.429V32.9248" stroke="#0202EA" stroke-width="1.90234" stroke-linecap="round" stroke-linejoin="round"/>
<path d="M34.5 15.0001C38.6421 15.0001 42 11.6422 42 7.50012C42 3.35799 38.6421 0 34.5 0C30.3579 0 27 3.35799 27 7.50012C27 11.6422 30.3579 15.0001 34.5 15.0001Z" fill="#0202EA"/>
<path d="M39.3439 5.02148L33.798 10.5675C33.5577 10.8063 33.2326 10.9404 32.8938 10.9404C32.5549 10.9404 32.2299 10.8063 31.9896 10.5675L30 8.57786" stroke="white" stroke-width="1.35" stroke-miterlimit="10" stroke-linecap="round"/>
</svg>
