<svg width="19" height="19" viewBox="0 0 19 19" fill="none" xmlns="http://www.w3.org/2000/svg">
<path fill-rule="evenodd" clip-rule="evenodd" d="M14.332 13.1261L10.252 9.50011L14.332 5.87411C14.538 5.69111 14.557 5.37511 14.374 5.16811C14.191 4.96111 13.875 4.94311 13.668 5.12611L9.50003 8.83111L5.33203 5.12611C5.12603 4.94311 4.81003 4.96111 4.62603 5.16811C4.44203 5.37511 4.46103 5.68911 4.66803 5.87411L8.74803 9.50011L4.66803 13.1261C4.46203 13.3091 4.44303 13.6251 4.62603 13.8321C4.72503 13.9431 4.86203 14.0001 5.00003 14.0001C5.11803 14.0001 5.23703 13.9581 5.33203 13.8741L9.50003 10.1691L13.668 13.8741C13.763 13.9591 13.882 14.0001 14 14.0001C14.138 14.0001 14.275 13.9431 14.374 13.8321C14.557 13.6261 14.539 13.3111 14.332 13.1261Z" fill="black"/>
<path fill-rule="evenodd" clip-rule="evenodd" d="M9.5 1C4.813 1 1 4.813 1 9.5C1 14.188 4.813 18 9.5 18C14.187 18 18 14.188 18 9.5C18 4.813 14.187 1 9.5 1ZM9.5 19C6.962 19 4.577 18.012 2.782 16.218C0.987 14.424 0 12.038 0 9.501C0 6.963 0.988 4.578 2.782 2.783C4.576 0.988 6.962 0 9.5 0C12.038 0 14.423 0.988 16.218 2.783C18.013 4.578 19 6.963 19 9.501C19 12.039 18.012 14.424 16.218 16.218C14.424 18.012 12.038 19 9.5 19Z" fill="black"/>
</svg>
