<svg width="337" height="31" viewBox="0 0 337 31" fill="none" xmlns="http://www.w3.org/2000/svg">
<path d="M165.004 22.9273C165.004 23.7023 164.355 24.3365 163.526 24.3365C162.696 24.3365 162.047 23.7023 162.047 22.9273C162.047 22.1522 162.696 21.5181 163.526 21.5181C164.355 21.5181 165.004 22.1522 165.004 22.9273ZM164.643 22.9273C164.643 22.3284 164.139 21.8351 163.526 21.8351C162.876 21.8351 162.408 22.3284 162.408 22.9273C162.408 23.5262 162.913 24.0194 163.526 24.0194C164.139 24.0194 164.643 23.5262 164.643 22.9273ZM164.139 22.6807C164.139 22.892 163.994 23.033 163.706 23.0682L164.139 23.5614H163.778L163.381 23.0682H163.237V23.5614H162.949V22.2579H163.562C163.958 22.2579 164.139 22.4341 164.139 22.6807ZM163.273 22.5045V22.8568H163.598C163.742 22.8568 163.85 22.7864 163.85 22.6807C163.85 22.575 163.742 22.5045 163.598 22.5045H163.273Z" fill="#626366"/>
<path d="M40.6024 13.5203C39.8451 13.5203 38.547 13.6965 37.5735 14.6477V9.68022C37.5735 9.15177 37.1408 8.729 36.5999 8.729H36.4556C35.9148 8.729 35.4821 9.15177 35.4821 9.68022V22.8211C35.4821 23.3496 35.9148 23.7724 36.4556 23.7724H36.5999C37.1408 23.7724 37.5735 23.3496 37.5735 22.8211V18.1707C37.5735 16.5854 38.6913 15.4932 40.3139 15.4932C41.9365 15.4932 42.838 16.4445 42.838 18.1355V22.8564C42.838 23.3848 43.2707 23.8076 43.8116 23.8076H43.9558C44.4967 23.8076 44.9294 23.3848 44.9294 22.8564V17.5718C44.8934 15.1409 43.1625 13.5203 40.6024 13.5203Z" fill="#626366"/>
<path d="M54.557 17.8186H48.9319C49.2564 16.2685 50.3021 15.3525 51.8166 15.3525C53.2589 15.3525 54.3046 16.3037 54.557 17.8186ZM51.8526 13.5205C48.8958 13.5205 46.7684 15.7048 46.7684 18.7346C46.7684 21.7996 48.8958 23.9487 51.9608 23.9487C53.4392 23.9487 54.5931 23.5964 55.6027 22.8566C55.783 22.7156 55.8912 22.5395 55.9273 22.2929C55.9633 22.0815 55.8912 21.8349 55.747 21.6587C55.4224 21.236 54.8455 21.1655 54.4128 21.4121C53.6916 21.8701 52.8623 22.0815 52.069 22.0815C50.3742 22.0815 49.1843 21.095 48.9319 19.4392H55.8912C56.36 19.4392 56.7205 19.0869 56.7205 18.6289C56.6845 15.6696 54.7013 13.5205 51.8526 13.5205Z" fill="#626366"/>
<path d="M63.247 22.0463C61.372 22.0463 60.0378 20.6723 60.0378 18.7346C60.0378 16.8322 61.408 15.4582 63.247 15.4582C65.1221 15.4582 66.4562 16.8322 66.4562 18.7346C66.4562 20.6723 65.086 22.0463 63.247 22.0463ZM67.4659 13.7319H67.3216C66.7808 13.7319 66.3481 14.1547 66.3481 14.6831V14.7536C65.4826 13.9433 64.3648 13.5205 63.0307 13.5205C60.1099 13.5205 57.9103 15.7753 57.9103 18.7346C57.9103 21.6939 60.1099 23.9487 63.0307 23.9487C64.3648 23.9487 65.4826 23.5259 66.3481 22.7156V22.7861C66.3481 23.3145 66.7808 23.7373 67.3216 23.7373H67.4659C68.0068 23.7373 68.4395 23.3145 68.4395 22.7861V14.6831C68.4395 14.1547 68.0068 13.7319 67.4659 13.7319Z" fill="#626366"/>
<path d="M71.9013 8.72925H71.757C71.2161 8.72925 70.7834 9.15201 70.7834 9.68047V22.8214C70.7834 23.3498 71.2161 23.7726 71.757 23.7726H71.9013C72.4421 23.7726 72.8748 23.3498 72.8748 22.8214V9.68047C72.8748 9.15201 72.4421 8.72925 71.9013 8.72925Z" fill="#626366"/>
<path d="M81.529 21.7296C81.0963 21.9409 80.6275 22.0466 80.1948 22.0466C79.113 22.0466 78.5001 21.3773 78.5001 20.1442V15.5995H81.7093C82.2502 15.5995 82.6829 15.1767 82.6829 14.6483C82.6829 14.1198 82.2502 13.697 81.7093 13.697H78.5001V11.6185C78.5001 11.09 78.0673 10.6672 77.5265 10.6672H77.3822C76.8414 10.6672 76.4087 11.09 76.4087 11.6185V13.697H75.2548C74.7139 13.697 74.2812 14.1198 74.2812 14.6483C74.2812 15.1767 74.7139 15.5995 75.2548 15.5995H76.4087V20.1794C76.4087 22.6103 77.7068 23.9843 80.0145 23.9843C80.8439 23.9843 81.6372 23.8082 82.3583 23.4206C82.6107 23.3149 82.755 23.1035 82.8271 22.8569C82.8992 22.6103 82.8631 22.3285 82.7189 22.1171C82.5026 21.6943 81.9617 21.5534 81.529 21.7296Z" fill="#626366"/>
<path d="M89.6061 13.5206C88.8489 13.5206 87.5508 13.6967 86.5772 14.6479V9.68047C86.5772 9.15201 86.1445 8.72925 85.6036 8.72925H85.4594C84.9185 8.72925 84.4858 9.15201 84.4858 9.68047V22.8214C84.4858 23.3498 84.9185 23.7726 85.4594 23.7726H85.6036C86.1445 23.7726 86.5772 23.3498 86.5772 22.8214V18.171C86.5772 16.5856 87.695 15.4935 89.3176 15.4935C90.9403 15.4935 91.8417 16.4447 91.8417 18.1358V22.8566C91.8417 23.3851 92.2744 23.8078 92.8153 23.8078H92.9596C93.5004 23.8078 93.9331 23.3851 93.9331 22.8566V17.5721C93.9331 15.1412 92.2023 13.5206 89.6061 13.5206Z" fill="#626366"/>
<path d="M104.21 18.6641C104.21 20.5313 102.876 21.8701 101.037 21.8701C99.1977 21.8701 97.8636 20.5313 97.8636 18.6641C97.8636 16.7969 99.1977 15.4582 101.037 15.4582C102.876 15.4582 104.21 16.7969 104.21 18.6641ZM105.183 13.7319H105.039C104.498 13.7319 104.066 14.1547 104.066 14.6831V14.7536C103.236 13.9433 102.155 13.5205 100.856 13.5205C97.8996 13.5205 95.7722 15.6696 95.7722 18.6641C95.7722 21.6587 97.8996 23.8078 100.856 23.8078C102.155 23.8078 103.272 23.385 104.066 22.6099V22.9975C104.066 24.9704 102.804 26.133 100.712 26.133C99.7747 26.133 98.8732 25.8864 98.0438 25.4636C97.8275 25.3579 97.5751 25.3227 97.3227 25.3931C97.0703 25.4636 96.89 25.6397 96.7457 25.8511L96.7097 25.8864C96.4573 26.3444 96.6376 26.908 97.0703 27.1547C98.0799 27.7183 99.378 28.0002 100.676 28.0002C104.03 28.0002 106.121 26.0625 106.121 22.927V14.6831C106.157 14.1547 105.724 13.7319 105.183 13.7319Z" fill="#626366"/>
<path d="M114.27 13.591C113.982 13.5557 113.657 13.5205 113.26 13.5205C112.215 13.5205 111.241 13.908 110.556 14.6831C110.556 14.1547 110.123 13.7319 109.582 13.7319H109.474C108.933 13.7319 108.501 14.1547 108.501 14.6831V22.8213C108.501 23.3498 108.933 23.7725 109.474 23.7725H109.618C110.159 23.7725 110.592 23.3498 110.592 22.8213V18.2061C110.592 16.5855 111.566 15.4582 112.972 15.4582C113.26 15.4582 113.585 15.4934 113.873 15.5639C114.378 15.6696 114.919 15.3877 115.063 14.8593V14.7888C115.135 14.507 115.099 14.2251 114.919 14.0137C114.775 13.8023 114.558 13.6614 114.27 13.591Z" fill="#626366"/>
<path d="M120.905 22.0463C119.03 22.0463 117.696 20.6723 117.696 18.7346C117.696 16.8322 119.066 15.4582 120.905 15.4582C122.78 15.4582 124.114 16.8322 124.114 18.7346C124.114 20.6723 122.744 22.0463 120.905 22.0463ZM125.124 13.7319H124.979C124.439 13.7319 124.006 14.1547 124.006 14.6831V14.7536C123.14 13.9433 122.023 13.5205 120.689 13.5205C117.768 13.5205 115.568 15.7753 115.568 18.7346C115.568 21.6939 117.768 23.9487 120.689 23.9487C122.023 23.9487 123.14 23.5259 124.006 22.7156V22.7861C124.006 23.3145 124.439 23.7373 124.979 23.7373H125.124C125.665 23.7373 126.097 23.3145 126.097 22.7861V14.6831C126.061 14.1547 125.629 13.7319 125.124 13.7319Z" fill="#626366"/>
<path d="M136.59 18.7347C136.59 20.6371 135.256 22.0463 133.381 22.0463C131.506 22.0463 130.172 20.6723 130.172 18.7347C130.172 16.8322 131.542 15.4582 133.381 15.4582C135.22 15.4582 136.59 16.8322 136.59 18.7347ZM137.6 8.72925H137.456C136.915 8.72925 136.482 9.15201 136.482 9.68047V14.7536C135.617 13.9433 134.499 13.5206 133.165 13.5206C130.244 13.5206 128.044 15.7753 128.044 18.7347C128.044 21.694 130.244 23.9488 133.165 23.9488C134.499 23.9488 135.617 23.526 136.482 22.7157V22.7862C136.482 23.3146 136.915 23.7374 137.456 23.7374H137.6C138.141 23.7374 138.573 23.3146 138.573 22.7862V9.68047C138.537 9.15201 138.105 8.72925 137.6 8.72925Z" fill="#626366"/>
<path d="M156.927 17.8186L155.773 17.6777C154.223 17.5015 154.007 17.0083 154.007 16.5855C154.007 15.8105 154.8 15.3173 156.062 15.3173C156.855 15.3173 157.757 15.5286 158.514 15.8457C158.983 16.0571 159.524 15.8809 159.776 15.4582C159.884 15.2468 159.92 14.965 159.848 14.7536C159.776 14.507 159.596 14.3308 159.379 14.2251C158.442 13.7671 157.252 13.5205 156.026 13.5205C153.502 13.5205 151.879 14.7536 151.879 16.656C151.879 17.7834 152.492 19.1926 155.341 19.5449L156.495 19.6858C158.334 19.8972 158.334 20.6018 158.334 20.8132C158.334 21.6235 157.432 22.1167 155.882 22.1167C154.8 22.1167 153.935 21.9053 153.177 21.5178C152.745 21.2712 152.168 21.4121 151.915 21.8349C151.771 22.0463 151.735 22.2929 151.807 22.5042C151.879 22.7509 152.023 22.927 152.24 23.0679C153.61 23.8078 155.088 23.9135 155.846 23.9135C158.622 23.9135 160.425 22.6452 160.425 20.7075C160.425 19.6154 159.848 18.2061 156.927 17.8186Z" fill="#626366"/>
<path d="M148.31 17.8186H142.684C143.009 16.2685 144.055 15.3525 145.569 15.3525C147.011 15.3525 148.057 16.3037 148.31 17.8186ZM145.605 13.5205C142.648 13.5205 140.521 15.7048 140.521 18.7346C140.521 21.7996 142.648 23.9487 145.713 23.9487C147.192 23.9487 148.346 23.5964 149.355 22.8566C149.536 22.7156 149.644 22.5395 149.68 22.2929C149.716 22.0815 149.644 21.8349 149.499 21.6587C149.175 21.2712 148.598 21.1655 148.165 21.4121C147.444 21.8701 146.615 22.0815 145.821 22.0815C144.127 22.0815 142.937 21.095 142.684 19.4392H149.644C150.112 19.4392 150.473 19.0869 150.473 18.6289C150.437 15.6696 148.454 13.5205 145.605 13.5205Z" fill="#626366"/>
<path d="M21.1663 12.7814C21.4548 13.0633 21.8154 13.2042 22.176 13.2042C22.5366 13.2042 22.9332 13.0633 23.1856 12.7814L28.3781 7.70824C28.955 7.14455 28.955 6.26379 28.3781 5.70011C27.8011 5.13642 26.8997 5.13642 26.3227 5.70011L21.1663 10.7733C20.5894 11.337 20.5894 12.253 21.1663 12.7814Z" fill="#0202EA"/>
<path d="M25.854 15.2121C25.3131 14.6836 24.4477 14.6484 23.8708 15.1416L16.3706 22.4695C15.9379 22.8923 15.2528 22.8923 14.8561 22.4695C14.4234 22.0467 14.4234 21.3774 14.8561 20.9898L17.5245 18.3828L20.301 15.6701C20.8779 15.1064 20.8779 14.2256 20.301 13.6619C19.7241 13.0982 18.8226 13.0982 18.2457 13.6619L16.623 15.2473L16.3706 15.4939C15.9379 15.9167 15.2888 15.9167 14.8561 15.4939C14.4234 15.0711 14.4234 14.437 14.8561 14.0142L15.974 12.9221L21.3106 7.70799C21.8876 7.14431 21.8876 6.26355 21.3106 5.69986C20.7337 5.13618 19.8322 5.13618 19.2553 5.69986L16.1182 8.76491C15.8297 9.04675 15.4691 9.18767 15.1086 9.18767C14.748 9.18767 14.4234 9.04675 14.135 8.80014L11.1421 5.87602C8.58195 3.37466 4.43521 3.37466 1.91111 5.87602C0.685113 7.07385 0 8.69444 0 10.3855C0 12.0766 0.685113 13.6972 1.91111 14.895L14.0268 26.7324L14.0629 26.7676C14.3513 27.0495 14.7119 27.1904 15.0725 27.1904C15.4331 27.1904 15.8297 27.0495 16.0821 26.7676L25.854 17.2202C26.431 16.6565 26.431 15.7757 25.854 15.2121Z" fill="#0202EA"/>
<path d="M27.5487 14.6126C28.3453 14.6126 28.991 13.9817 28.991 13.2034C28.991 12.4251 28.3453 11.7942 27.5487 11.7942C26.7521 11.7942 26.1063 12.4251 26.1063 13.2034C26.1063 13.9817 26.7521 14.6126 27.5487 14.6126Z" fill="#0202EA"/>
<path d="M189.099 15.0812H185.268V13.5487C185.268 12.0918 185.816 11.231 187.198 11.231C187.935 11.231 188.645 11.4769 189.146 11.7797L189.534 10.881C188.919 10.5026 188.115 10.2188 187.131 10.2188C185.012 10.2188 184.189 11.5905 184.189 13.5487V15.0812H182.004V16.0651H184.189V23.9832H185.268V16.0651H189.099V15.0812Z" fill="#626366"/>
<path fill-rule="evenodd" clip-rule="evenodd" d="M190.773 19.539C190.773 16.9186 192.751 14.9414 195.39 14.9414C198.029 14.9414 200.025 16.9186 200.025 19.539C200.025 22.1595 198.029 24.1271 195.39 24.1271C192.751 24.1271 190.773 22.1595 190.773 19.539ZM198.919 19.5385C198.919 17.4667 197.396 15.9531 195.39 15.9531C193.394 15.9531 191.871 17.4667 191.871 19.5385C191.871 21.6103 193.394 23.1144 195.39 23.1144C197.396 23.1144 198.919 21.6103 198.919 19.5385Z" fill="#626366"/>
<path d="M206.563 14.9297C205.39 14.9297 204.396 15.5541 203.819 16.5947V15.081H202.76V23.983H203.829V18.9597C203.829 17.1623 204.888 15.9608 206.374 15.9608C206.913 15.9608 207.518 16.0838 207.953 16.3203L208.228 15.2703C207.745 15.0337 207.197 14.9297 206.563 14.9297Z" fill="#626366"/>
<path fill-rule="evenodd" clip-rule="evenodd" d="M217.376 15.9985C218 15.2039 218.927 14.6836 220.214 14.6836C222.749 14.6836 224.745 16.6797 224.745 19.4515C224.745 22.2233 222.749 24.2194 220.214 24.2194C218.927 24.2194 218 23.6991 217.376 22.9044V27.7669H215.398V14.9201H217.376V15.9985ZM222.71 19.4511C222.71 17.8618 221.679 16.5469 219.976 16.5469C218.34 16.5469 217.242 17.7956 217.242 19.4511C217.242 21.1066 218.34 22.3554 219.976 22.3554C221.679 22.3554 222.71 21.0404 222.71 19.4511Z" fill="#626366"/>
<path d="M231.783 14.6855C230.677 14.6855 229.75 15.0829 229.154 15.9437V14.922H227.195V23.9848H229.172V18.9993C229.172 17.4574 230.071 16.5681 231.329 16.5681C231.812 16.5681 232.417 16.6816 232.833 16.8992L233.306 14.941C232.852 14.7612 232.389 14.6855 231.783 14.6855Z" fill="#626366"/>
<path fill-rule="evenodd" clip-rule="evenodd" d="M234.668 19.4515C234.668 16.7364 236.74 14.6836 239.54 14.6836C242.34 14.6836 244.421 16.7364 244.421 19.4515C244.421 22.1665 242.34 24.2194 239.54 24.2194C236.74 24.2194 234.668 22.1665 234.668 19.4515ZM242.387 19.4511C242.387 17.7388 241.157 16.5469 239.539 16.5469C237.922 16.5469 236.701 17.7388 236.701 19.4511C236.701 21.1634 237.922 22.3554 239.539 22.3554C241.157 22.3554 242.387 21.1634 242.387 19.4511Z" fill="#626366"/>
<path d="M252.689 14.9213H249.586V13.3887C249.586 12.49 250.002 11.9886 250.769 11.9886C251.365 11.9886 251.999 12.2062 252.462 12.4711L253.162 10.8061C252.49 10.4088 251.696 10.125 250.636 10.125C248.517 10.125 247.6 11.5724 247.6 13.3887V14.9213H245.783V16.7187H247.6V23.984H249.586V16.7187H252.689V14.9213Z" fill="#626366"/>
<path fill-rule="evenodd" clip-rule="evenodd" d="M254.203 19.4515C254.203 16.6135 256.048 14.6836 258.716 14.6836C261.251 14.6836 262.992 16.6135 263.001 19.442C263.001 19.6974 262.982 19.9529 262.963 20.1799H256.265C256.53 21.807 257.675 22.4882 258.962 22.4882C259.87 22.4882 260.835 22.1287 261.582 21.5327L262.566 22.9423C261.459 23.8883 260.21 24.2194 258.839 24.2194C256.124 24.2194 254.203 22.3273 254.203 19.4515ZM260.977 18.674C260.759 17.2644 259.936 16.4414 258.678 16.4414C257.269 16.4414 256.484 17.3496 256.275 18.674H260.977Z" fill="#626366"/>
<path d="M272.471 15.6508C271.534 15.0453 270.219 14.6953 268.8 14.6953C266.492 14.6953 265.054 15.8021 265.054 17.5996C265.054 19.0564 266.123 19.9835 268.129 20.2578L269.075 20.3808C270.153 20.5322 270.645 20.8727 270.645 21.3836C270.645 22.0647 269.936 22.4904 268.583 22.4904C267.107 22.4904 266.246 22.0647 265.593 21.5633L264.676 23.0486C266 24.0324 267.627 24.2122 268.564 24.2122C271.175 24.2122 272.688 22.9918 272.688 21.2511C272.688 19.6997 271.515 18.8577 269.538 18.5739L268.602 18.432C267.769 18.3091 267.107 18.1293 267.107 17.4955C267.107 16.8522 267.741 16.417 268.819 16.417C269.945 16.417 271.071 16.8522 271.619 17.1928L272.471 15.6508Z" fill="#626366"/>
<path d="M282.035 15.6508C281.099 15.0453 279.784 14.6953 278.365 14.6953C276.057 14.6953 274.619 15.8021 274.619 17.5996C274.619 19.0564 275.688 19.9835 277.693 20.2578L278.639 20.3808C279.718 20.5322 280.209 20.8727 280.209 21.3836C280.209 22.0647 279.5 22.4904 278.147 22.4904C276.671 22.4904 275.811 22.0647 275.158 21.5633L274.24 23.0486C275.565 24.0324 277.192 24.2122 278.128 24.2122C280.739 24.2122 282.253 22.9918 282.253 21.2511C282.253 19.6997 281.08 18.8577 279.103 18.5739L278.166 18.432C277.334 18.3091 276.671 18.1293 276.671 17.4955C276.671 16.8522 277.305 16.417 278.384 16.417C279.509 16.417 280.635 16.8522 281.184 17.1928L282.035 15.6508Z" fill="#626366"/>
<path fill-rule="evenodd" clip-rule="evenodd" d="M284.182 11.7907C284.182 11.0055 284.778 10.3906 285.563 10.3906C286.348 10.3906 286.963 11.0055 286.963 11.7907C286.963 12.5759 286.348 13.1719 285.563 13.1719C284.778 13.1719 284.182 12.5759 284.182 11.7907ZM284.578 14.9219H286.565V23.9846H284.578V14.9219Z" fill="#626366"/>
<path fill-rule="evenodd" clip-rule="evenodd" d="M289.016 19.4515C289.016 16.7364 291.087 14.6836 293.888 14.6836C296.688 14.6836 298.769 16.7364 298.769 19.4515C298.769 22.1665 296.688 24.2194 293.888 24.2194C291.087 24.2194 289.016 22.1665 289.016 19.4515ZM296.736 19.4511C296.736 17.7388 295.506 16.5469 293.889 16.5469C292.271 16.5469 291.051 17.7388 291.051 19.4511C291.051 21.1634 292.271 22.3554 293.889 22.3554C295.506 22.3554 296.736 21.1634 296.736 19.4511Z" fill="#626366"/>
<path d="M305.968 14.6855C305.041 14.6855 303.915 14.9599 303.186 16.0289V14.922H301.219V23.9848H303.205V18.9615C303.205 17.4101 304.274 16.5681 305.551 16.5681C306.876 16.5681 307.661 17.4195 307.661 18.9426V23.9848H309.648V18.2898C309.648 16.1708 308.125 14.6855 305.968 14.6855Z" fill="#626366"/>
<path fill-rule="evenodd" clip-rule="evenodd" d="M319.383 14.9201H321.36V23.9829H319.383V22.8949C318.758 23.6991 317.822 24.2194 316.535 24.2194C314 24.2194 312.004 22.2233 312.004 19.4515C312.004 16.6797 314 14.6836 316.535 14.6836C317.822 14.6836 318.758 15.2134 319.383 16.0175V14.9201ZM319.507 19.4511C319.507 17.7956 318.41 16.5469 316.773 16.5469C315.07 16.5469 314.039 17.8618 314.039 19.4511C314.039 21.0404 315.07 22.3554 316.773 22.3554C318.41 22.3554 319.507 21.1066 319.507 19.4511Z" fill="#626366"/>
<path d="M326.45 10.3613H324.463V23.9838H326.45V10.3613Z" fill="#626366"/>
<path d="M336.572 15.6508C335.636 15.0453 334.321 14.6953 332.902 14.6953C330.594 14.6953 329.156 15.8021 329.156 17.5996C329.156 19.0564 330.225 19.9835 332.23 20.2578L333.176 20.3808C334.255 20.5322 334.747 20.8727 334.747 21.3836C334.747 22.0647 334.037 22.4904 332.684 22.4904C331.209 22.4904 330.348 22.0647 329.695 21.5633L328.777 23.0486C330.102 24.0324 331.729 24.2122 332.665 24.2122C335.276 24.2122 336.79 22.9918 336.79 21.2511C336.79 19.6997 335.617 18.8577 333.64 18.5739L332.703 18.432C331.871 18.3091 331.209 18.1293 331.209 17.4955C331.209 16.8522 331.842 16.417 332.921 16.417C334.047 16.417 335.172 16.8522 335.721 17.1928L336.572 15.6508Z" fill="#626366"/>
<path d="M173.504 2V30" stroke="#B8B8BA" stroke-linecap="square"/>
</svg>
