<svg width="44" height="44" viewBox="0 0 44 44" fill="none" xmlns="http://www.w3.org/2000/svg">
<path d="M21 43C32.0457 43 41 34.0457 41 23C41 11.9543 32.0457 3 21 3C9.9543 3 1 11.9543 1 23C1 34.0457 9.9543 43 21 43Z" stroke="#0202EA" stroke-width="1.90234" stroke-linecap="round" stroke-linejoin="round"/>
<path d="M21.0245 22.7328C23.7212 22.7328 25.9072 20.5468 25.9072 17.8502C25.9072 15.1535 23.7212 12.9675 21.0245 12.9675C18.3279 12.9675 16.1418 15.1535 16.1418 17.8502C16.1418 20.5468 18.3279 22.7328 21.0245 22.7328Z" stroke="#0202EA" stroke-width="1.90234" stroke-linecap="round" stroke-linejoin="round"/>
<path d="M33.9106 38.2703C32.4648 31.4473 27.2524 27.1606 21.0254 27.1606C14.7983 27.1606 9.56689 31.4663 8.13379 38.3084" stroke="#0202EA" stroke-width="1.90234" stroke-linecap="round" stroke-linejoin="round"/>
<path d="M25.9783 28.429V32.9248" stroke="#0202EA" stroke-width="1.90234" stroke-linecap="round" stroke-linejoin="round"/>
<path d="M16.3005 28.429V32.9248" stroke="#0202EA" stroke-width="1.90234" stroke-linecap="round" stroke-linejoin="round"/>
<path d="M35.5852 12.7397C38.3061 12.7397 40.5118 10.5341 40.5118 7.8132C40.5118 5.09234 38.3061 2.88672 35.5852 2.88672C32.8644 2.88672 30.6587 5.09234 30.6587 7.8132C30.6587 10.5341 32.8644 12.7397 35.5852 12.7397Z" fill="white"/>
<path d="M43.1578 8.31842L41.6398 6.65028L42.7185 4.68186L40.6055 3.92001L40.6389 1.69583L38.4147 2.00182L37.4083 0L35.5789 1.30106L33.7551 0L32.743 2.00182L30.5189 1.69583L30.5522 3.92001L28.4393 4.68186L29.518 6.65028L28 8.31842L29.8683 9.56409L29.3123 11.7326L31.5364 11.9715L32.0369 14.1569L34.1221 13.3285L35.5844 15.0298L37.0468 13.3285L39.132 14.1569L39.6325 11.9715L41.8566 11.7326L41.3006 9.56409L43.1578 8.31842ZM39.7103 6.7225L37.9588 7.87912C37.8689 7.93642 37.8022 8.02383 37.7707 8.12565C37.7391 8.22746 37.7447 8.33707 37.7864 8.43516L38.5982 10.6593C38.6303 10.7419 38.6348 10.8327 38.6112 10.9181C38.5876 11.0035 38.5371 11.079 38.4671 11.1334C38.3971 11.1877 38.3115 11.218 38.2229 11.2197C38.1343 11.2215 38.0475 11.1947 37.9755 11.1432L35.8291 9.6697C35.7547 9.61829 35.6665 9.5907 35.5761 9.5907C35.4857 9.5907 35.3975 9.61829 35.3231 9.6697L33.1823 11.1432C33.1103 11.1947 33.0235 11.2215 32.9349 11.2197C32.8463 11.218 32.7607 11.1877 32.6907 11.1334C32.6207 11.079 32.5702 11.0035 32.5465 10.9181C32.5229 10.8327 32.5275 10.7419 32.5595 10.6593L33.3714 8.43516C33.4143 8.33723 33.4204 8.22721 33.3888 8.1251C33.3571 8.02299 33.2898 7.93562 33.199 7.87912L31.4475 6.7225C31.3729 6.67393 31.3161 6.60271 31.2856 6.51914C31.2551 6.43557 31.2525 6.34422 31.2781 6.25904C31.3038 6.17385 31.3564 6.09922 31.428 6.04645C31.4997 5.99368 31.5865 5.96563 31.6755 5.96636H33.9664C34.0575 5.96522 34.1462 5.93644 34.2207 5.88382C34.2952 5.8312 34.3519 5.75733 34.3834 5.67177L35.1897 3.48641C35.2199 3.40774 35.2733 3.34001 35.3428 3.29229C35.4123 3.24457 35.4946 3.21898 35.5789 3.21898C35.6632 3.21898 35.7455 3.24457 35.815 3.29229C35.8845 3.34001 35.9378 3.40774 35.9681 3.48641L36.7744 5.67177C36.8059 5.75733 36.8626 5.8312 36.9371 5.88382C37.0116 5.93644 37.1002 5.96522 37.1914 5.96636H39.4823C39.5713 5.96563 39.6581 5.99368 39.7297 6.04645C39.8014 6.09922 39.854 6.17385 39.8797 6.25904C39.9053 6.34422 39.9027 6.43557 39.8722 6.51914C39.8416 6.60271 39.7849 6.67393 39.7103 6.7225Z" fill="#0202EA"/>
</svg>
