<svg width="13" height="23" viewBox="0 0 13 23" fill="none" xmlns="http://www.w3.org/2000/svg">
<path d="M12.7541 4.73456L10.9973 3.45896L10.3265 1.39376H8.1557L6.3989 0.118164L4.6421 1.39376H2.4713L1.8005 3.45896L0.0437012 4.73456L0.714501 6.79976L0.0437012 8.86496L1.8005 10.1406L2.1989 11.3658V22.3998C2.1989 22.6206 2.3213 22.8246 2.5157 22.929C2.7101 23.0334 2.9477 23.0214 3.1313 22.899L6.3989 20.721L9.6665 22.899C9.7673 22.9662 9.8825 22.9998 9.9989 22.9998C10.0961 22.9998 10.1933 22.9758 10.2821 22.929C10.4777 22.8246 10.5989 22.6218 10.5989 22.3998V11.3658L10.9973 10.1406L12.7541 8.86496L12.0833 6.79976L12.7541 4.73456ZM6.7325 19.5006C6.5309 19.3662 6.2681 19.3662 6.0665 19.5006L3.3989 21.279V12.2058H4.6421L6.3989 13.4814L8.1557 12.2058H9.3989V21.279L6.7313 19.5006H6.7325ZM11.3441 8.40656L9.9773 9.39896L9.4577 10.9998H9.4001V11.0046H7.7669L6.4001 11.997L5.0333 11.0046H3.3449L2.8229 9.39776L1.4561 8.40536L1.9781 6.79856L1.4561 5.19176L2.8229 4.19936L3.3449 2.59256H5.0333L6.4001 1.60016L7.7669 2.59256H9.4553L9.9773 4.19936L11.3441 5.19176L10.8221 6.79856L11.3441 8.40536V8.40656Z" fill="#0202EA"/>
</svg>
