<svg width="24" height="24" viewBox="0 0 24 24" fill="none" xmlns="http://www.w3.org/2000/svg">
<path fill-rule="evenodd" clip-rule="evenodd" d="M11.4 1.2C8.4228 1.2 6 3.6228 6 6.6C6 9.5772 8.4228 12 11.4 12C14.3772 12 16.8 9.5772 16.8 6.6C16.8 3.6228 14.3772 1.2 11.4 1.2ZM11.4008 13.2C7.76118 13.2 4.80078 10.2396 4.80078 6.6C4.80078 2.9604 7.76118 0 11.4008 0C15.0404 0 18.0008 2.9604 18.0008 6.6C18.0008 10.2396 15.0404 13.2 11.4008 13.2Z" fill="#1C3DFF"/>
<path fill-rule="evenodd" clip-rule="evenodd" d="M13.8 23.9984H1.8C0.8076 23.9984 0 23.1908 0 22.1984C0 22.1168 0.0168001 20.1764 1.47 18.2384C2.316 17.1104 3.474 16.214 4.9128 15.5756C6.6696 14.7944 8.8524 14.3984 11.4 14.3984C11.8212 14.3984 12.2376 14.4116 12.6372 14.4356C12.9684 14.456 13.2192 14.7416 13.1988 15.0716C13.1784 15.4016 12.8928 15.6548 12.5628 15.6332C12.1872 15.6104 11.796 15.5984 11.4 15.5984C7.2156 15.5984 4.128 16.742 2.4708 18.9056C1.2288 20.5268 1.2012 22.184 1.2 22.2008C1.2 22.5296 1.4688 22.7984 1.8 22.7984H13.8C14.1312 22.7984 14.4 23.0672 14.4 23.3984C14.4 23.7296 14.1312 23.9984 13.8 23.9984Z" fill="#1C3DFF"/>
<path fill-rule="evenodd" clip-rule="evenodd" d="M18.6 14.4C16.284 14.4 14.4 16.284 14.4 18.6C14.4 20.916 16.284 22.8 18.6 22.8C20.916 22.8 22.8 20.916 22.8 18.6C22.8 16.284 20.916 14.4 18.6 14.4ZM18.5992 23.9992C15.622 23.9992 13.1992 21.5764 13.1992 18.5992C13.1992 15.622 15.622 13.1992 18.5992 13.1992C21.5764 13.1992 23.9992 15.622 23.9992 18.5992C23.9992 21.5764 21.5764 23.9992 18.5992 23.9992Z" fill="#1C3DFF"/>
<path fill-rule="evenodd" clip-rule="evenodd" d="M20.9996 19.2H16.1996C15.8684 19.2 15.5996 18.9312 15.5996 18.6C15.5996 18.2688 15.8684 18 16.1996 18H20.9996C21.3308 18 21.5996 18.2688 21.5996 18.6C21.5996 18.9312 21.3308 19.2 20.9996 19.2Z" fill="#1C3DFF"/>
</svg>
