<svg width="23" height="24" viewBox="0 0 23 24" fill="none" xmlns="http://www.w3.org/2000/svg">
<path fill-rule="evenodd" clip-rule="evenodd" d="M22.8416 23.0039C22.9509 23.1211 23.0037 23.2637 22.9998 23.4316C22.9958 23.5996 22.9314 23.7383 22.8064 23.8477C22.7517 23.9023 22.6892 23.9414 22.6189 23.9648C22.5486 23.9883 22.4744 24 22.3962 24C22.3181 24 22.24 23.9844 22.1619 23.9531C22.0837 23.9219 22.0173 23.875 21.9626 23.8125L14.8259 16.0312C14.4275 16.3516 14.0076 16.6348 13.5662 16.8809C13.1248 17.127 12.6677 17.332 12.1951 17.4961C11.7224 17.6602 11.2341 17.7852 10.7302 17.8711C10.2263 17.957 9.71656 18 9.20093 18C8.59936 18 8.00952 17.9434 7.4314 17.8301C6.85327 17.7168 6.29468 17.5488 5.75562 17.3262C5.21655 17.1035 4.70093 16.8281 4.20874 16.5C3.71655 16.1719 3.25952 15.793 2.83765 15.3633C2.41577 14.9414 2.04077 14.4844 1.71265 13.9922C1.38452 13.5 1.10718 12.9844 0.880615 12.4453C0.654052 11.9062 0.484131 11.3477 0.37085 10.7695C0.257568 10.1914 0.200928 9.60157 0.200928 9C0.200928 8.39843 0.257568 7.8086 0.37085 7.23047C0.484131 6.65234 0.654052 6.09375 0.880615 5.55469C1.10718 5.01562 1.38452 4.50196 1.71265 4.01367C2.04077 3.52539 2.41577 3.06641 2.83765 2.63672C3.25952 2.21484 3.71655 1.83985 4.20874 1.51172C4.70093 1.18359 5.21655 0.908204 5.75562 0.685547C6.29468 0.46289 6.85327 0.292969 7.4314 0.175781C8.00952 0.0585932 8.59936 0 9.20093 0C9.80249 0 10.3923 0.0585932 10.9705 0.175781C11.5486 0.292969 12.1072 0.46289 12.6462 0.685547C13.1853 0.908204 13.7009 1.18359 14.1931 1.51172C14.6853 1.83985 15.1423 2.21484 15.5642 2.63672C15.9861 3.06641 16.3611 3.52539 16.6892 4.01367C17.0173 4.50196 17.2947 5.01562 17.5212 5.55469C17.7478 6.09375 17.9177 6.65234 18.031 7.23047C18.1443 7.8086 18.2009 8.39843 18.2009 9C18.2009 9.58594 18.1462 10.1602 18.0369 10.7227C17.9275 11.2852 17.7673 11.8301 17.5564 12.3574C17.3455 12.8848 17.0857 13.3887 16.7771 13.8691C16.4685 14.3496 16.115 14.8008 15.7166 15.2227L22.8416 23.0039ZM1.39624 9C1.39624 10.0781 1.60132 11.0898 2.01147 12.0352C2.42163 12.9805 2.98022 13.8066 3.68726 14.5137C4.39429 15.2207 5.22045 15.7793 6.16577 16.1895C7.11109 16.5996 8.1228 16.8047 9.20093 16.8047C10.2791 16.8047 11.2908 16.5996 12.2361 16.1895C13.1814 15.7793 14.0076 15.2207 14.7146 14.5137C15.4216 13.8066 15.9802 12.9805 16.3904 12.0352C16.8005 11.0898 17.0056 10.0781 17.0056 9C17.0056 7.92968 16.8005 6.91993 16.3904 5.9707C15.9802 5.02148 15.4216 4.19532 14.7146 3.49219C14.0076 2.78906 13.1814 2.23242 12.2361 1.82227C11.2908 1.41211 10.2791 1.20703 9.20093 1.20703C8.1228 1.20703 7.11109 1.41211 6.16577 1.82227C5.22045 2.23242 4.39429 2.78906 3.68726 3.49219C2.98022 4.19532 2.42163 5.02148 2.01147 5.9707C1.60132 6.91993 1.39624 7.92968 1.39624 9Z" fill="#626366"/>
</svg>
