<svg width="42" height="42" viewBox="0 0 42 42" fill="none" xmlns="http://www.w3.org/2000/svg">
<path d="M21 41C32.0457 41 41 32.0457 41 21C41 9.95432 32.0457 1 21 1C9.9543 1 1 9.95432 1 21C1 32.0457 9.9543 41 21 41Z" stroke="#0202EA" stroke-width="1.90234" stroke-linecap="round" stroke-linejoin="round"/>
<path d="M21.0245 20.7328C23.7212 20.7328 25.9072 18.5468 25.9072 15.8502C25.9072 13.1535 23.7212 10.9675 21.0245 10.9675C18.3279 10.9675 16.1418 13.1535 16.1418 15.8502C16.1418 18.5468 18.3279 20.7328 21.0245 20.7328Z" stroke="#0202EA" stroke-width="1.90234" stroke-linecap="round" stroke-linejoin="round"/>
<path d="M33.9106 36.2703C32.4648 29.4473 27.2524 25.1606 21.0254 25.1606C14.7983 25.1606 9.56689 29.4663 8.13379 36.3084" stroke="#0202EA" stroke-width="1.90234" stroke-linecap="round" stroke-linejoin="round"/>
<path d="M25.9783 26.429V30.9248" stroke="#0202EA" stroke-width="1.90234" stroke-linecap="round" stroke-linejoin="round"/>
<path d="M16.3005 26.429V30.9248" stroke="#0202EA" stroke-width="1.90234" stroke-linecap="round" stroke-linejoin="round"/>
</svg>
