<svg width="94" height="44" viewBox="0 0 94 44" fill="none" xmlns="http://www.w3.org/2000/svg">
<path d="M47.0134 15.3618C50.7031 15.3618 53.6943 12.3707 53.6943 8.68098C53.6943 4.99122 50.7031 2 47.0134 2C43.3236 2 40.3325 4.99122 40.3325 8.68098C40.3325 12.3707 43.3236 15.3618 47.0134 15.3618Z" stroke="#0202EA" stroke-width="2.49737" stroke-linecap="round" stroke-linejoin="round"/>
<path d="M28.8076 41.9654C28.8076 29.5742 36.9585 21.4421 47.0128 21.4421C57.0671 21.4421 65.2179 29.5742 65.2179 41.9654" stroke="#0202EA" stroke-width="2.49737" stroke-linecap="round" stroke-linejoin="round"/>
<path d="M73.7916 15.3618C77.4813 15.3618 80.4724 12.3707 80.4724 8.68098C80.4724 4.99122 77.4813 2 73.7916 2C70.1018 2 67.1106 4.99122 67.1106 8.68098C67.1106 12.3707 70.1018 15.3618 73.7916 15.3618Z" stroke="#0202EA" stroke-width="2.49737" stroke-linecap="round" stroke-linejoin="round"/>
<path d="M64.5415 24.0432C67.3211 22.3257 70.5276 21.4245 73.7949 21.4424C83.8493 21.4424 92.0001 29.5745 92.0001 41.9657" stroke="#0202EA" stroke-width="2.49737" stroke-linecap="round" stroke-linejoin="round"/>
<path d="M20.2314 15.3618C23.9212 15.3618 26.9124 12.3707 26.9124 8.68098C26.9124 4.99122 23.9212 2 20.2314 2C16.5416 2 13.5505 4.99122 13.5505 8.68098C13.5505 12.3707 16.5416 15.3618 20.2314 15.3618Z" stroke="#0202EA" stroke-width="2.49737" stroke-linecap="round" stroke-linejoin="round"/>
<path d="M29.4586 24.0432C26.679 22.3257 23.4726 21.4245 20.2053 21.4424C10.1509 21.4424 2 29.5745 2 41.9657" stroke="#0202EA" stroke-width="2.49737" stroke-linecap="round" stroke-linejoin="round"/>
<path d="M53.7969 23.1721V29.3347" stroke="#0202EA" stroke-width="2.49737" stroke-linecap="round" stroke-linejoin="round"/>
<path d="M40.5386 23.1721V29.3347" stroke="#0202EA" stroke-width="2.49737" stroke-linecap="round" stroke-linejoin="round"/>
<path d="M53.7986 34.0415C54.4439 34.0415 54.967 33.5183 54.967 32.873C54.967 32.2277 54.4439 31.7046 53.7986 31.7046C53.1533 31.7046 52.6301 32.2277 52.6301 32.873C52.6301 33.5183 53.1533 34.0415 53.7986 34.0415Z" fill="#0202EA"/>
<path d="M36.6479 36.5521C36.6479 35.5749 37.0362 34.6378 37.7271 33.9469C38.4181 33.2559 39.3552 32.8677 40.3324 32.8677C41.3095 32.8677 42.2467 33.2559 42.9376 33.9469C43.6286 34.6378 44.0167 35.5749 44.0167 36.5521" stroke="#0202EA" stroke-width="2.49737" stroke-linecap="round" stroke-linejoin="round"/>
<path d="M26.3379 23.1721V29.3347" stroke="#0202EA" stroke-width="2.49737" stroke-linecap="round" stroke-linejoin="round"/>
<path d="M13.0793 23.1721V29.3347" stroke="#0202EA" stroke-width="2.49737" stroke-linecap="round" stroke-linejoin="round"/>
<path d="M26.3393 34.0415C26.9847 34.0415 27.5079 33.5183 27.5079 32.873C27.5079 32.2277 26.9847 31.7046 26.3393 31.7046C25.694 31.7046 25.1709 32.2277 25.1709 32.873C25.1709 33.5183 25.694 34.0415 26.3393 34.0415Z" fill="#0202EA"/>
<path d="M9.47217 36.5521C9.47217 35.5749 9.86028 34.6378 10.5512 33.9469C11.2422 33.2559 12.1793 32.8677 13.1565 32.8677C14.1336 32.8677 15.0709 33.2559 15.7618 33.9469C16.4528 34.6378 16.8409 35.5749 16.8409 36.5521" stroke="#0202EA" stroke-width="2.49737" stroke-linecap="round" stroke-linejoin="round"/>
<path d="M81.2451 23.1721V29.3347" stroke="#0202EA" stroke-width="2.49737" stroke-linecap="round" stroke-linejoin="round"/>
<path d="M67.9978 23.1721V29.3347" stroke="#0202EA" stroke-width="2.49737" stroke-linecap="round" stroke-linejoin="round"/>
<path d="M81.2468 34.0415C81.8921 34.0415 82.4152 33.5183 82.4152 32.873C82.4152 32.2277 81.8921 31.7046 81.2468 31.7046C80.6015 31.7046 80.0784 32.2277 80.0784 32.873C80.0784 33.5183 80.6015 34.0415 81.2468 34.0415Z" fill="#0202EA"/>
<path d="M67.7915 32.8677C68.7687 32.8677 69.7058 33.2559 70.3967 33.9469C71.0877 34.6378 71.4758 35.5749 71.4758 36.5521" stroke="#0202EA" stroke-width="2.49737" stroke-linecap="round" stroke-linejoin="round"/>
</svg>
