<svg xmlns="http://www.w3.org/2000/svg" width="14" height="18" viewBox="0 0 14 18">
  <path fill="#FF7275" fill-rule="evenodd" d="M12.1733398,2.54833984 C12.5275083,2.54833984 12.8291003,2.67285032 13.078125,2.921875 C13.3271497,3.17089968 13.4516602,3.47249172 13.4516602,3.82666016 L13.4516602,4.67333984 C13.4516602,4.95003394 13.3714201,5.19767143 13.2109375,5.41625977 C13.0504549,5.6348481 12.8457044,5.78841102 12.5966797,5.87695312 L12.5966797,16.5766602 C12.5966797,16.9252947 12.4721692,17.2241198 12.2231445,17.4731445 C11.9741198,17.7221692 11.6752947,17.8466797 11.3266602,17.8466797 L2.82666016,17.8466797 C2.47249172,17.8466797 2.17089968,17.7221692 1.921875,17.4731445 C1.67285032,17.2241198 1.54833984,16.9252947 1.54833984,16.5766602 L1.54833984,5.87695312 C1.30484904,5.78841102 1.10286539,5.6348481 0.942382812,5.41625977 C0.781900239,5.19767143 0.701660156,4.95003394 0.701660156,4.67333984 L0.701660156,3.82666016 C0.701660156,3.47249172 0.82617063,3.17089968 1.07519531,2.921875 C1.32422,2.67285032 1.62304513,2.54833984 1.97167969,2.54833984 L4.95166016,2.54833984 L4.95166016,2.125 C4.95166016,1.77083156 5.07617063,1.46923953 5.32519531,1.22021484 C5.57422,0.971190161 5.87304513,0.846679688 6.22167969,0.846679688 L7.92333984,0.846679688 C8.27750828,0.846679688 8.57910032,0.971190161 8.828125,1.22021484 C9.07714968,1.46923953 9.20166016,1.77083156 9.20166016,2.125 L9.20166016,2.54833984 L12.1733398,2.54833984 Z M5.79833984,2.125 L5.79833984,2.54833984 L8.34667969,2.54833984 L8.34667969,2.125 C8.34667969,2.00878848 8.3051762,1.9091801 8.22216797,1.82617188 C8.13915974,1.74316365 8.03955136,1.70166016 7.92333984,1.70166016 L6.22167969,1.70166016 C6.10546817,1.70166016 6.00585979,1.74316365 5.92285156,1.82617188 C5.83984333,1.9091801 5.79833984,2.00878848 5.79833984,2.125 Z M11.3266602,17 C11.4428717,17 11.5424801,16.9584965 11.6254883,16.8754883 C11.7084965,16.7924801 11.75,16.6928717 11.75,16.5766602 L11.75,5.95166016 L2.40332031,5.95166016 L2.40332031,16.5766602 C2.40332031,16.6928717 2.4448238,16.7924801 2.52783203,16.8754883 C2.61084026,16.9584965 2.71044864,17 2.82666016,17 L11.3266602,17 Z M12.5966797,4.67333984 L12.5966797,3.82666016 C12.5966797,3.71044864 12.5551762,3.61084026 12.472168,3.52783203 C12.3891597,3.4448238 12.2895514,3.40332031 12.1733398,3.40332031 L1.97167969,3.40332031 C1.85546817,3.40332031 1.75585979,3.4448238 1.67285156,3.52783203 C1.58984333,3.61084026 1.54833984,3.71044864 1.54833984,3.82666016 L1.54833984,4.67333984 C1.54833984,4.78955136 1.58984333,4.88915974 1.67285156,4.97216797 C1.75585979,5.0551762 1.85546817,5.09667969 1.97167969,5.09667969 L12.1733398,5.09667969 C12.2895514,5.09667969 12.3891597,5.0551762 12.472168,4.97216797 C12.5551762,4.88915974 12.5966797,4.78955136 12.5966797,4.67333984 Z M9.625,6.79833984 C9.74121152,6.79833984 9.8408199,6.83984333 9.92382812,6.92285156 C10.0068364,7.00585979 10.0483398,7.10546817 10.0483398,7.22167969 L10.0483398,15.7216797 C10.0483398,15.8434251 10.0068364,15.9458004 9.92382812,16.0288086 C9.8408199,16.1118168 9.74121152,16.1533203 9.625,16.1533203 C9.50878848,16.1533203 9.4091801,16.1118168 9.32617188,16.0288086 C9.24316365,15.9458004 9.20166016,15.8434251 9.20166016,15.7216797 L9.20166016,7.22167969 C9.20166016,7.10546817 9.24316365,7.00585979 9.32617188,6.92285156 C9.4091801,6.83984333 9.50878848,6.79833984 9.625,6.79833984 Z M7.07666016,6.79833984 C7.19287167,6.79833984 7.29248005,6.83984333 7.37548828,6.92285156 C7.45849651,7.00585979 7.5,7.10546817 7.5,7.22167969 L7.5,15.7216797 C7.5,15.8434251 7.45849651,15.9458004 7.37548828,16.0288086 C7.29248005,16.1118168 7.19287167,16.1533203 7.07666016,16.1533203 C6.96044864,16.1533203 6.86084026,16.1118168 6.77783203,16.0288086 C6.6948238,15.9458004 6.65332031,15.8434251 6.65332031,15.7216797 L6.65332031,7.22167969 C6.65332031,7.10546817 6.6948238,7.00585979 6.77783203,6.92285156 C6.86084026,6.83984333 6.96044864,6.79833984 7.07666016,6.79833984 Z M4.52832031,6.79833984 C4.64453183,6.79833984 4.74414021,6.83984333 4.82714844,6.92285156 C4.91015667,7.00585979 4.95166016,7.10546817 4.95166016,7.22167969 L4.95166016,15.7216797 C4.95166016,15.8434251 4.91015667,15.9458004 4.82714844,16.0288086 C4.74414021,16.1118168 4.64453183,16.1533203 4.52832031,16.1533203 C4.40657491,16.1533203 4.30419963,16.1118168 4.22119141,16.0288086 C4.13818318,15.9458004 4.09667969,15.8434251 4.09667969,15.7216797 L4.09667969,7.22167969 C4.09667969,7.10546817 4.13818318,7.00585979 4.22119141,6.92285156 C4.30419963,6.83984333 4.40657491,6.79833984 4.52832031,6.79833984 Z"/>
</svg>
