<svg width="20" height="20" viewBox="0 0 20 20" fill="none" xmlns="http://www.w3.org/2000/svg">
<path d="M15.4999 1.99999H11.9999V1.49999C11.9999 0.672997 11.3269 0 10.4999 0H8.49991C7.67291 0 6.99991 0.672997 6.99991 1.49999V1.99999H3.49993C2.67294 1.99999 1.99994 2.67299 1.99994 3.49998V4.49998C1.99994 5.15197 2.41794 5.70797 2.99993 5.91397V18.4999C2.99993 19.3269 3.67293 19.9999 4.49993 19.9999H14.4999C15.3269 19.9999 15.9999 19.3269 15.9999 18.4999V5.91397C16.5819 5.70797 16.9999 5.15197 16.9999 4.49998V3.49998C16.9999 2.67299 16.3269 1.99999 15.4999 1.99999ZM7.99991 1.49999C7.99991 1.22399 8.22391 0.999995 8.49991 0.999995H10.4999C10.7759 0.999995 10.9999 1.22399 10.9999 1.49999V1.99999H7.99991V1.49999ZM14.4999 18.9999H4.49993C4.22393 18.9999 3.99993 18.7759 3.99993 18.4999V5.99997H14.9999V18.4999C14.9999 18.7759 14.7759 18.9999 14.4999 18.9999ZM15.9999 4.49998C15.9999 4.77598 15.7759 4.99997 15.4999 4.99997H3.49993C3.22393 4.99997 2.99993 4.77598 2.99993 4.49998V3.49998C2.99993 3.22398 3.22393 2.99998 3.49993 2.99998H15.4999C15.7759 2.99998 15.9999 3.22398 15.9999 3.49998V4.49998Z" fill="#0202EA"/>
<path d="M12.4999 7C12.2239 7 11.9999 7.224 11.9999 7.5V17.4999C11.9999 17.7759 12.2239 17.9999 12.4999 17.9999C12.7759 17.9999 12.9999 17.7759 12.9999 17.4999V7.5C12.9999 7.224 12.7759 7 12.4999 7Z" fill="#0202EA"/>
<path d="M9.49981 7C9.22382 7 8.99982 7.224 8.99982 7.5V17.4999C8.99982 17.7759 9.22382 17.9999 9.49981 17.9999C9.77581 17.9999 9.99981 17.7759 9.99981 17.4999V7.5C9.99981 7.224 9.77581 7 9.49981 7Z" fill="#0202EA"/>
<path d="M6.50012 7C6.22412 7 6.00012 7.224 6.00012 7.5V17.4999C6.00012 17.7759 6.22412 17.9999 6.50012 17.9999C6.77612 17.9999 7.00012 17.7759 7.00012 17.4999V7.5C7.00012 7.224 6.77612 7 6.50012 7Z" fill="#0202EA"/>
</svg>
