<svg width="16" height="16" viewBox="0 0 16 16" fill="none" xmlns="http://www.w3.org/2000/svg">
<path d="M14.8003 15.2004H0.400311C0.257911 15.2004 0.126711 15.1252 0.0547106 15.002C-0.0172894 14.8788 -0.0180894 14.7276 0.0515106 14.6036L7.25151 1.80361C7.32271 1.67801 7.45551 1.59961 7.60031 1.59961C7.74511 1.59961 7.87791 1.67721 7.94911 1.80361L15.1491 14.6036C15.2187 14.7276 15.2171 14.8788 15.1459 15.002C15.0747 15.1252 14.9427 15.2004 14.8003 15.2004ZM1.08431 14.4004H14.1163L7.60031 2.81641L1.08431 14.4004V14.4004Z" fill="#D83D40"/>
<path d="M7.59922 11.2004C7.37842 11.2004 7.19922 11.0212 7.19922 10.8004V6.80039C7.19922 6.57959 7.37842 6.40039 7.59922 6.40039C7.82002 6.40039 7.99922 6.57959 7.99922 6.80039V10.8004C7.99922 11.0212 7.82002 11.2004 7.59922 11.2004Z" fill="#D83D40"/>
<path d="M7.59922 13.6C7.37842 13.6 7.19922 13.4208 7.19922 13.2V12.4C7.19922 12.1792 7.37842 12 7.59922 12C7.82002 12 7.99922 12.1792 7.99922 12.4V13.2C7.99922 13.4208 7.82002 13.6 7.59922 13.6Z" fill="#D83D40"/>
</svg>
