<svg width="45" height="57" viewBox="0 0 45 57" fill="none" xmlns="http://www.w3.org/2000/svg">
<path d="M12.7635 52.836C13.3888 52.836 13.8957 52.329 13.8957 51.7037C13.8957 51.0785 13.3888 50.5715 12.7635 50.5715C12.1382 50.5715 11.6313 51.0785 11.6313 51.7037C11.6313 52.329 12.1382 52.836 12.7635 52.836Z" fill="#0202EA"/>
<path d="M23.4975 43.9853V17.1505C23.5043 16.8663 23.4534 16.5838 23.3478 16.3199C23.2422 16.0559 23.0842 15.8162 22.8832 15.6152C22.6822 15.4142 22.4424 15.2562 22.1785 15.1506C21.9146 15.045 21.632 14.9939 21.3478 15.0008H4.15047C3.86603 14.9929 3.58297 15.0432 3.31859 15.1485C3.0542 15.2537 2.81405 15.4115 2.61284 15.6127C2.41162 15.814 2.25358 16.0541 2.14835 16.3185C2.04312 16.5828 1.9929 16.866 2.00081 17.1505V21.7507" stroke="#0202EA" stroke-width="2.14967" stroke-linecap="round" stroke-linejoin="round"/>
<path d="M2.03138 20.9773V52.8497C2.0245 53.1338 2.07542 53.4164 2.18102 53.6803C2.28661 53.9442 2.4447 54.1839 2.6457 54.3849C2.8467 54.5859 3.08642 54.7443 3.35034 54.8499C3.61425 54.9555 3.89687 55.0062 4.18104 54.9993H21.3784C21.6625 55.0062 21.9452 54.9555 22.2091 54.8499C22.473 54.7443 22.7127 54.5859 22.9137 54.3849C23.1147 54.1839 23.2728 53.9442 23.3784 53.6803C23.484 53.4164 23.5349 53.1338 23.528 52.8497V48.2494" stroke="#0202EA" stroke-width="2.14967" stroke-linecap="round" stroke-linejoin="round"/>
<path d="M11.3013 18.4553H14.232H11.3013Z" stroke="#0202EA" stroke-width="1.79139" stroke-linecap="round" stroke-linejoin="round"/>
<path d="M23.966 1C23.7104 0.999998 23.4652 1.10122 23.2842 1.28161C23.1031 1.462 23.0009 1.70682 23 1.9624V12.1867C23.0009 12.4423 23.1031 12.6871 23.2842 12.8675C23.4652 13.0479 23.7104 13.1491 23.966 13.1491H25.6599C25.9162 13.1509 26.1616 13.2533 26.3435 13.4338C26.5254 13.6144 26.6293 13.8591 26.633 14.1153V16.4875C26.633 17.0202 26.9597 17.1586 27.3433 16.8034L30.6247 13.799C31.0991 13.4102 31.6849 13.1826 32.2974 13.1491H42.8129C43.0678 13.1482 43.3121 13.0467 43.4924 12.8665C43.6726 12.6862 43.7744 12.4417 43.7753 12.1867V1.97315C43.7744 1.71819 43.6726 1.47403 43.4924 1.29375C43.3121 1.11346 43.0678 1.01169 42.8129 1.01075L23.966 1Z" stroke="#0202EA" stroke-width="1.0654" stroke-linecap="round" stroke-linejoin="round"/>
<path d="M26.1782 4.4585H40.6286" stroke="#0202EA" stroke-width="1.0654" stroke-linecap="round" stroke-linejoin="round"/>
<path d="M26.1782 7.04834H40.6286" stroke="#0202EA" stroke-width="1.0654" stroke-linecap="round" stroke-linejoin="round"/>
<path d="M26.1782 9.63696H37.1199" stroke="#0202EA" stroke-width="1.0654" stroke-linecap="round" stroke-linejoin="round"/>
</svg>
