<svg width="116" height="11" viewBox="0 0 116 11" fill="none" xmlns="http://www.w3.org/2000/svg">
<g clip-path="url(#clip0_1405_747)">
<path fill-rule="evenodd" clip-rule="evenodd" d="M8.29412 10.3651H5.27586V5.60941C5.27586 5.1095 4.91565 4.78904 4.49146 4.78904C4.07975 4.78904 3.58231 5.12232 3.58231 5.60941V9.33957V10.3651H0.873338V2.78936L0 2.17408C0.998102 1.8408 2.67153 1.12297 3.58231 0.623047V4.59676C3.94412 4.14812 4.82832 3.57129 5.9512 3.57129C7.37349 3.57129 7.98484 4.50703 7.98484 5.62222V9.63722C7.98484 9.75798 8.08793 10.0006 8.29412 10.3651ZM39.4047 10.3651H36.3864V5.60941C36.3864 5.1095 36.0262 4.78904 35.602 4.78904C35.1903 4.78904 34.6929 5.12232 34.6929 5.60941V9.33957V10.3651H31.9839V2.78936L31.1106 2.17408C32.1086 1.8408 33.7821 1.12297 34.6929 0.623047V4.59676C35.0547 4.14812 35.9389 3.57129 37.0617 3.57129C38.4841 3.57129 39.0953 4.50703 39.0953 5.62222V9.63722C39.0953 9.75798 39.1984 10.0006 39.4047 10.3651ZM14.8918 9.23396V9.7085C14.2912 10.2216 13.6279 10.6448 12.2014 10.6448C9.94904 10.6448 8.57259 9.14417 8.57259 7.29715C8.57259 5.091 9.98655 3.5903 12.0637 3.5903C14.1159 3.5903 14.8918 4.98839 14.8918 6.74562H11.1404C11.3031 8.77222 12.4392 9.6957 13.4778 9.6957C13.9783 9.6957 14.5414 9.52898 14.8918 9.23396ZM11.9355 6.34695C12.5393 6.34695 12.6082 6.17609 12.6082 5.67455C12.6082 5.29001 12.5393 4.34213 11.9355 4.34213C11.3319 4.34213 11.263 5.29001 11.263 5.67455C11.263 6.17609 11.3319 6.34695 11.9355 6.34695ZM63.0699 9.70671V9.23211C62.7194 9.52714 62.1564 9.69391 61.656 9.69391C60.6173 9.69391 59.4812 8.77037 59.3185 6.74378H63.0699C63.0699 4.98657 62.2939 3.58849 60.2421 3.58849C58.1646 3.58849 56.7507 5.08919 56.7507 7.29536C56.7507 9.14233 58.1271 10.6431 60.3797 10.6431C61.8064 10.6431 62.4695 10.2198 63.0699 9.70671ZM60.7867 5.67253C60.7867 6.17408 60.7173 6.34493 60.1135 6.34493C59.5103 6.34493 59.441 6.17408 59.441 5.67253C59.441 5.28798 59.5103 4.34011 60.1135 4.34011C60.7173 4.34011 60.7867 5.28798 60.7867 5.67253ZM22.5476 9.17548L22.8473 9.23866C22.7102 9.78851 22.3108 10.6448 21.0257 10.6448C19.9526 10.6448 19.6516 9.99072 19.427 9.29809C19.2398 9.9394 18.5053 10.6448 17.1079 10.6448C15.8602 10.6448 15.174 10.0933 15.174 9.05438C15.174 7.9 16.3077 7.05345 19.14 6.2197V5.00121C19.14 4.37271 18.8031 4.15466 18.4288 4.15466C18.092 4.15466 17.5571 4.51381 17.5571 5.07817C17.5571 5.27344 17.5833 5.43498 17.612 5.61171C17.6229 5.67879 17.6341 5.74801 17.6444 5.82209C17.6444 6.16843 17.2451 6.6943 16.6338 6.6943C15.96 6.6943 15.6356 6.2069 15.6356 5.64251C15.6356 4.71903 16.4965 3.5903 18.7549 3.5903C21.1005 3.5903 21.8491 4.82164 21.8491 6.00166V9.13131C21.8491 9.32375 21.924 9.51613 22.1361 9.51613C22.3232 9.51613 22.4506 9.41052 22.5476 9.17548ZM19.1548 8.93899V6.61497C18.2059 6.99805 17.8774 7.943 17.8774 8.67086C17.8774 9.25822 18.0599 9.52641 18.4979 9.52641C18.8811 9.52641 19.1548 9.28377 19.1548 8.93899ZM26.4269 10.3651H23.3108V9.33957V2.78936L22.4806 2.17408C23.4295 1.8408 25.173 1.12297 26.0388 0.623047V9.63722C26.0388 9.75233 26.1682 9.99497 26.4269 10.3651ZM40.3854 10.3651H43.5014C43.2427 9.99497 43.1134 9.75233 43.1134 9.63722V0.623047C42.2475 1.12297 40.5041 1.8408 39.5552 2.17408L40.3854 2.78936V9.33957V10.3651ZM31.0992 9.57997V10.0547C30.6452 10.4397 29.8925 10.645 29.08 10.645C27.7417 10.645 27.2757 9.65696 27.2757 8.82298V4.36504H26.6304L30.0239 1.40683V3.84466H31.0992V4.36504H30.0239V9.19505C30.0239 9.57997 30.2509 9.7596 30.5257 9.7596C30.693 9.7596 30.9917 9.68262 31.0992 9.57997ZM44.7049 2.05426C44.7049 2.85076 45.3195 3.48548 46.0907 3.48548C46.8619 3.48548 47.4765 2.85076 47.4765 2.05426C47.4765 1.25776 46.8619 0.623047 46.0907 0.623047C45.3195 0.623047 44.7049 1.25776 44.7049 2.05426ZM47.9147 10.3651H44.7338V5.59527L43.8585 4.97813C44.8589 4.64386 46.5364 3.92389 47.4492 3.42248V9.63722C47.4492 9.75686 47.6043 9.9995 47.9147 10.3651ZM53.4312 10.3651H56.5472C56.276 9.99732 56.1402 9.75468 56.1402 9.63722V5.60813C56.1402 4.48958 55.5288 3.55105 54.1065 3.55105C52.9837 3.55105 52.1156 4.14245 51.6665 4.73386V3.42248C50.7557 3.92389 49.1535 4.64386 48.1553 4.97813L49.0287 5.59527V9.33655V10.3651H51.7377V9.33655V5.59527C51.7377 5.1067 52.2351 4.77243 52.6468 4.77243C53.071 4.77243 53.4312 5.09384 53.4312 5.59527V10.3651Z" fill="#B8B8BA"/>
<path fill-rule="evenodd" clip-rule="evenodd" d="M74.9173 2.11372C75.4859 2.11372 75.941 1.64725 75.941 1.06415C75.941 0.481054 75.4859 0 74.9173 0C74.3632 0 73.8942 0.481054 73.8942 1.06415C73.8942 1.64725 74.3632 2.11372 74.9173 2.11372ZM75.7704 10.1895V3.14865H74.0647V10.1895H75.7704ZM69.4065 6.09336V10.1896H67.5017V0.466501H72.9315V2.17205H69.4065V4.4024H72.8319V6.09336H69.4065ZM78.922 10.1895V5.39357C79.1635 4.97083 79.604 4.51893 80.1726 4.51893C80.7412 4.51893 81.0682 4.81048 81.0682 5.55391V10.1895H82.7734V4.89794C82.7734 3.73175 82.2054 2.97373 80.9402 2.97373C80.0591 2.97373 79.2915 3.51309 78.922 4.06703V3.14865H77.2162V10.1895H78.922ZM86.4225 10.3645C87.0766 10.3645 87.7302 10.0001 88.1568 9.30039V10.1896H89.8625V0.466501H88.1568V4.03796C87.7302 3.30909 87.0766 2.97381 86.4225 2.97381C84.8733 2.97381 83.8787 4.41697 83.8787 6.67648C83.8787 8.9797 84.8733 10.3645 86.4225 10.3645ZM86.9631 8.81936C86.096 8.81936 85.6409 7.90097 85.6409 6.67648C85.6409 5.4374 86.096 4.51903 86.9631 4.51903C87.4317 4.51903 87.9292 4.88346 88.1568 5.34996V7.98846C87.9292 8.4549 87.4317 8.81936 86.9631 8.81936ZM94.9753 10.3645C96.8515 10.3645 97.7186 9.08173 98.1877 7.91556L96.61 7.21582C96.34 8.01759 95.7854 8.62983 94.9753 8.62983C93.7246 8.62983 92.957 7.245 92.957 5.33537C92.957 3.42572 93.7246 2.04087 94.9753 2.04087C95.7574 2.04087 96.3115 2.58023 96.596 3.35284L98.1732 2.63855C97.6901 1.51608 96.823 0.306164 94.9753 0.306164C92.545 0.306164 90.9958 2.39073 90.9958 5.33537C90.9958 8.28002 92.545 10.3645 94.9753 10.3645ZM100.899 10.3645C101.595 10.3645 102.32 10.0437 102.704 9.4898V10.1895H104.424V5.46647C104.424 3.65886 103.244 2.97373 101.751 2.97373C100.87 2.97373 99.8325 3.27985 99.108 3.99414L99.7475 5.18949C100.259 4.67928 100.842 4.43146 101.439 4.43146C102.249 4.43146 102.704 4.89794 102.704 5.65594V6.58893C102.334 6.03499 101.609 5.75803 100.899 5.75803C99.8185 5.75803 98.7809 6.48689 98.7809 8.03207C98.7809 9.53352 99.8185 10.3645 100.899 10.3645ZM101.553 9.18365C100.913 9.18365 100.487 8.73175 100.487 8.0612C100.487 7.39064 100.913 6.92415 101.553 6.92415C102.022 6.92415 102.476 7.18652 102.704 7.6093V8.5131C102.476 8.95041 102.022 9.18365 101.553 9.18365ZM107.575 10.1895V5.4956C107.86 5.02913 108.499 4.65012 109.039 4.65012C109.195 4.65012 109.338 4.66469 109.451 4.69385V2.98829C108.712 2.98829 107.959 3.48392 107.575 4.12533V3.14865H105.87V10.1895H107.575ZM113.172 10.3645C114.096 10.3645 115.019 10 115.63 9.31487L114.849 8.26532C114.465 8.70262 113.882 8.95046 113.357 8.95046C112.319 8.95046 111.765 8.19241 111.693 7.2303H116V6.73468C116 4.54808 114.934 2.97373 113.044 2.97373C111.139 2.97373 109.974 4.62097 109.974 6.66183C109.974 8.87756 111.239 10.3645 113.172 10.3645ZM114.351 6.03505H111.693C111.722 5.30618 112.063 4.38779 113.016 4.38779C114.01 4.38779 114.323 5.30618 114.351 6.03505Z" fill="#B8B8BA"/>
</g>
<defs>
<clipPath id="clip0_1405_747">
<rect width="116" height="10.645" fill="white"/>
</clipPath>
</defs>
</svg>
