<svg width="116" height="10" viewBox="0 0 116 10" fill="none" xmlns="http://www.w3.org/2000/svg">
<path fill-rule="evenodd" clip-rule="evenodd" d="M83.628 8.97795L82.6499 9.17549V9.61591H87.2195V9.17549L86.2107 8.97795C86.1952 8.9746 86.1802 8.97138 86.1658 8.9683C85.8555 8.90172 85.8135 8.89271 85.8135 8.68936V0.729193H86.5013C87.2042 0.729193 87.6781 0.774721 88.2434 1.10884C88.5033 1.51897 88.8396 2.38493 88.977 3.03812H89.405L89.298 0.0152374C89.0688 0.121532 88.3657 0.197352 88.0449 0.197352H81.9775C81.4121 0.197352 80.8771 0.121532 80.5714 0L80.4645 3.02307H80.8771C81.03 2.36969 81.3203 1.51897 81.6107 1.09379C81.8705 0.926545 82.5736 0.729193 83.5058 0.729193H84.0406V8.68936C84.0406 8.89312 83.9986 8.90175 83.673 8.9687C83.6585 8.97167 83.6436 8.97474 83.628 8.97795ZM95.0926 6.2675C95.0926 4.81376 94.5486 3.31812 93.0209 3.31812C91.5144 3.31812 90.9599 4.81376 90.9599 6.2675C90.9599 7.73172 91.504 9.34256 93.0209 9.34256C94.5383 9.34256 95.0926 7.73172 95.0926 6.2675ZM89.6312 6.26732C89.6312 4.4788 91.0018 2.94145 93.021 2.94145C95.0404 2.94145 96.4214 4.46851 96.4214 6.26732C96.4214 8.07678 95.0509 9.72915 93.021 9.72915C91.0018 9.72915 89.6312 8.06631 89.6312 6.26732ZM107.768 7.24485L106.725 4.43163L105.735 7.24485H107.768ZM103.778 9.31181L104.256 9.19639C104.395 9.16487 104.469 9.10181 104.522 8.95505L106.82 2.94145H107.416L109.703 8.96556C109.746 9.08079 109.831 9.16487 109.969 9.2069L110.341 9.31181V9.61602H107.661V9.31181L108.224 9.19639C108.405 9.15436 108.458 9.09148 108.395 8.92352L107.937 7.70595H105.586L105.15 8.96556C105.097 9.12301 105.171 9.16487 105.299 9.19639L105.852 9.31181V9.61602H103.778V9.31181ZM111.218 9.30895L111.93 9.16077C112.153 9.11857 112.217 9.07618 112.217 8.9492V6.89592L110.144 3.73176C110.038 3.57299 109.996 3.53078 109.847 3.47762L109.549 3.37183V3.05446H112.196V3.37183L111.707 3.4884L111.675 3.49571C111.515 3.53256 111.437 3.55071 111.536 3.69997L113.194 6.23999L114.672 3.73176C114.778 3.5518 114.693 3.50941 114.417 3.4566L113.949 3.36141V3.05446H116V3.36141L115.692 3.44601C115.522 3.4884 115.426 3.53078 115.32 3.71057L113.439 6.69494V8.9492C113.439 9.09737 113.471 9.10779 113.715 9.16077L114.438 9.30895V9.6159H111.218V9.30895ZM102.475 6.29298C102.475 8.14497 101.542 9.26683 100.144 9.26683H99.9322C99.6037 9.26683 99.2646 9.21385 99.0847 9.15044V3.52011C99.2434 3.44611 99.5613 3.38253 99.7733 3.38253H99.9956C101.902 3.38253 102.475 4.80076 102.475 6.29298ZM97.5699 9.18196L96.9872 9.30894V9.6159H100.43C102.475 9.6159 103.777 8.11326 103.777 6.25049C103.777 4.18674 102.136 3.05446 100.176 3.05446H96.9872V3.36124L97.5803 3.48822C97.8241 3.54121 97.8558 3.57282 97.8558 3.71041V8.97037C97.8558 9.11855 97.8241 9.12915 97.5699 9.18196Z" fill="#B8B8BA"/>
<path fill-rule="evenodd" clip-rule="evenodd" d="M50.8074 7.02119V1.80238L57.1753 9.72943H57.6791V2.63918C57.6791 2.14844 57.7105 1.71231 57.7339 1.38697C57.7432 1.25847 57.7512 1.14726 57.7555 1.05678C57.7555 0.798261 57.8777 0.7374 58.0609 0.706877L58.9619 0.554816V0.113525H55.3275V0.554816L56.5643 0.7374C56.7782 0.767923 56.8394 0.919984 56.8546 1.10257C56.9003 1.43721 56.9463 2.03057 56.9463 2.6697V6.86895L51.5252 0.113525H48.868V0.569893L49.6163 0.7374C49.6377 0.742497 49.658 0.747309 49.6774 0.751894C50.0048 0.82936 50.059 0.842205 50.059 1.07205V7.03646C50.059 7.4404 50.0218 7.91868 49.9942 8.274C49.9823 8.42719 49.9721 8.55752 49.9675 8.64919C49.9371 8.84703 49.8911 8.92316 49.6927 8.95368L48.7765 9.10574V9.54685H52.4108V9.10574L51.1739 8.92316C50.9755 8.89282 50.9295 8.81651 50.8991 8.61867C50.8684 8.32981 50.8074 7.59929 50.8074 7.02119ZM59.4146 9.30898L59.9989 9.18206C60.2539 9.12928 60.2856 9.11869 60.2856 8.9704V3.71332C60.2856 3.56522 60.2539 3.54404 60.0094 3.49126L59.4146 3.36434V3.05754H63.6427C63.9402 3.05754 64.3332 2.99398 64.4926 2.94121L64.6837 5.04608H64.3969C64.2696 4.55958 64.0783 4.03072 63.8659 3.75569C63.6321 3.60759 63.016 3.4383 62.3466 3.4383H62.251C61.9961 3.4383 61.7411 3.45948 61.5181 3.50185V5.98767H62.697C62.9947 5.80779 63.2497 5.3317 63.3027 5.00372H63.5152V7.42617H63.3027C63.2071 6.99244 63.0052 6.62227 62.697 6.41062H61.5181V9.17146C61.5533 9.17625 61.588 9.18128 61.6231 9.18636C61.8211 9.21499 62.0314 9.24542 62.4104 9.24542H62.6547C63.069 9.24542 63.7278 9.13969 64.0251 8.91762C64.2481 8.65319 64.5352 8.02899 64.6733 7.55309H64.9599L64.652 9.61578H59.4146V9.30898ZM75.7077 7.33005H75.3716C75.3776 7.57576 75.3862 7.84106 75.3947 8.10429C75.4167 8.78376 75.4383 9.44945 75.4148 9.72891H75.6534L75.8376 9.4146C76.1737 9.57175 76.6725 9.72891 77.4964 9.72891C78.9383 9.72891 80.0115 9.01657 80.0115 7.79101C80.0115 6.7226 79.1877 6.26164 78.5262 5.958L77.5399 5.50753C76.9434 5.23518 76.6508 4.92088 76.6508 4.35521C76.6508 3.68483 77.1605 3.2868 77.7674 3.2868C78.3529 3.2868 78.6997 3.56963 78.9707 3.83149C79.1551 4.10384 79.3503 4.61724 79.437 5.04656H79.7512L79.6863 2.99365H79.4587L79.2309 3.29728C78.8841 3.10885 78.4178 2.94121 77.7781 2.94121C76.5314 2.94121 75.4799 3.62208 75.4799 4.68C75.4799 5.60175 76.0545 6.13595 77.0302 6.52349L77.7134 6.79584C78.3095 7.03672 78.7648 7.36151 78.7648 8.09482C78.7648 8.83844 78.2661 9.37265 77.3772 9.37265C76.7375 9.37265 76.3905 9.0795 76.1412 8.77569C75.9244 8.36699 75.7944 7.77003 75.7077 7.33005ZM65.3477 3.45987C65.5006 3.51065 65.6031 3.54469 65.6652 3.71025L67.7489 9.72903H68.2459L70.1499 5.14875L71.8209 9.72903H72.3074L74.6025 3.72084C74.6708 3.5358 74.7569 3.51207 74.886 3.4765L74.92 3.467L75.2584 3.36126V3.05446H73.1959V3.36126L73.7036 3.467C73.9891 3.53055 74.0421 3.56215 73.9786 3.74203L72.4767 8.17421L70.8796 3.74203C70.8268 3.60451 70.8478 3.53055 71.0487 3.47759L71.5247 3.36126V3.05446H68.9862V3.36126L69.2826 3.45641C69.4199 3.49878 69.5258 3.54096 69.5892 3.71025L69.8642 4.38722L68.4468 8.20598L66.9661 3.68907C66.9239 3.55155 66.9769 3.53055 67.1883 3.47759L67.6959 3.36126V3.05446H65.0731V3.36126L65.3373 3.45641L65.3477 3.45987Z" fill="#B8B8BA"/>
<path fill-rule="evenodd" clip-rule="evenodd" d="M1.03354 8.97915L-0.00012207 9.13137V9.57294H3.61743V9.13137L2.53821 8.96388C2.32549 8.93332 2.27993 8.72018 2.27993 8.52213C2.27904 8.51278 2.27814 8.50331 2.27722 8.49373C2.24681 8.17535 2.20388 7.7258 2.20388 7.07522V2.15562L5.79112 9.55784H5.88242L9.6067 1.97285V8.64398C9.6067 8.8573 9.5459 8.88767 9.19632 8.96388L8.48174 9.13137V9.57294H12.6164V9.13137L11.7804 8.9486C11.4308 8.8724 11.3853 8.8573 11.3853 8.64398V1.07426C11.3853 0.876209 11.4461 0.845655 11.7499 0.769637L12.6012 0.556494V0.129839H9.77387L6.36885 7.0143L3.07038 0.114746H0.182106V0.571587L0.97274 0.75436C1.01516 0.764554 1.05378 0.773421 1.08894 0.781492C1.36866 0.845701 1.42868 0.859478 1.42868 1.08954V7.0905C1.42868 7.5872 1.39811 7.96139 1.37489 8.24567C1.36536 8.36234 1.35706 8.46386 1.35263 8.5525C1.32213 8.76583 1.26151 8.9486 1.03354 8.97915ZM13.241 9.30898L13.8254 9.18206C14.0801 9.12928 14.1121 9.11869 14.1121 8.9704V3.71332C14.1121 3.56522 14.0801 3.54404 13.8358 3.49126L13.241 3.36434V3.05754H17.4692C17.7667 3.05754 18.1595 2.99398 18.3191 2.94121L18.5102 5.04608H18.2233C18.0959 4.55958 17.9048 4.03072 17.6924 3.75569C17.4585 3.60759 16.8425 3.4383 16.173 3.4383H16.0775C15.8225 3.4383 15.5676 3.45948 15.3446 3.50185V5.98767H16.5235C16.8212 5.80779 17.0759 5.3317 17.1291 5.00372H17.3415V7.42617H17.1291C17.0336 6.99244 16.8316 6.62227 16.5235 6.41062H15.3446V9.17146C15.3796 9.17623 15.4142 9.18123 15.4491 9.18629L15.4492 9.18631C15.6472 9.21496 15.8576 9.24543 16.2368 9.24543H16.4811C16.8955 9.24543 17.5543 9.13969 17.8516 8.91762C18.0746 8.65319 18.3615 8.02899 18.4996 7.55309H18.7864L18.4785 9.61578H13.241V9.30898ZM33.9003 2.94121C31.7877 2.94121 30.2166 4.3449 30.2166 6.34555C30.2166 8.12629 31.4374 9.72891 33.7411 9.72891C34.6221 9.72891 35.4397 9.5298 35.8537 9.34118L36.2146 7.39298H35.9173C35.79 7.84345 35.4397 8.69196 35.2062 8.92235C34.9194 9.12146 34.3888 9.36234 33.7836 9.36234C32.5096 9.36234 31.5754 8.1158 31.5754 6.28261C31.5754 4.79519 32.1698 3.27649 33.932 3.27649C34.6329 3.27649 35.1105 3.52768 35.3866 3.77923C35.5988 4.06206 35.8219 4.80568 35.9173 5.25616H36.204L36.0872 3.00396H35.8642L35.6626 3.266C35.1424 3.03543 34.5479 2.94121 33.9003 2.94121ZM40.4307 7.24461L39.3878 4.43138L38.3984 7.24461H40.4307ZM36.4407 9.31156L36.9195 9.19615C37.0578 9.16462 37.1322 9.10157 37.1855 8.95481L39.4833 2.94121H40.0791L42.3662 8.96532C42.4086 9.08055 42.4938 9.16462 42.6321 9.20666L43.0046 9.31156V9.61578H40.3237V9.31156L40.8875 9.19615C41.0684 9.15411 41.1215 9.09124 41.0578 8.92328L40.6003 7.7057H38.2492L37.813 8.96532C37.7599 9.12277 37.8343 9.16462 37.962 9.19615L38.5152 9.31156V9.61578H36.4407V9.31156ZM43.1285 9.30895L43.6982 9.18197C43.9515 9.12917 43.983 9.11857 43.983 8.97021V3.71057C43.983 3.56239 43.9515 3.5518 43.7089 3.49899L43.118 3.36141V3.05446H46.1875V3.36141L45.4808 3.49899C45.2488 3.5412 45.2065 3.57299 45.2065 3.71057V8.74822C45.2065 9.22436 45.6917 9.24537 46.0187 9.24537H46.1349C46.6304 9.24537 47.2106 9.10779 47.485 8.91741C47.6959 8.65284 47.9174 8.2401 48.0545 7.89077L48.2655 7.34063H48.5502L48.065 9.6159H43.1285V9.30895ZM26.7081 9.30895L27.2861 9.18197C27.5383 9.12917 27.5699 9.11857 27.5699 8.97021V3.71057C27.5699 3.56239 27.5383 3.5518 27.2966 3.49899L26.7081 3.36141V3.05446H29.6506V3.36141L29.0724 3.49899C28.8307 3.5518 28.7888 3.56239 28.7888 3.71057V8.97021C28.7888 9.11857 28.8204 9.12917 29.062 9.18197L29.6506 9.30895V9.6159H26.7081V9.30895ZM24.8395 6.29298C24.8395 8.14497 23.9073 9.26683 22.509 9.26683H22.2972C21.9687 9.26683 21.6297 9.21385 21.4497 9.15044V3.52011C21.6086 3.44611 21.9263 3.38253 22.1383 3.38253H22.3607C24.2674 3.38253 24.8395 4.80076 24.8395 6.29298ZM19.9347 9.18196L19.352 9.30894V9.6159H22.7949C24.8394 9.6159 26.1423 8.11326 26.1423 6.25049C26.1423 4.18674 24.5005 3.05446 22.5407 3.05446H19.352V3.36124L19.9453 3.48822C20.1889 3.54121 20.2208 3.57282 20.2208 3.71041V8.97037C20.2208 9.11855 20.1889 9.12915 19.9347 9.18196Z" fill="#B8B8BA"/>
</svg>
