<svg width="116" height="17" viewBox="0 0 116 17" fill="none" xmlns="http://www.w3.org/2000/svg">
<path d="M116 13.3065C116 13.8514 115.544 14.2972 114.961 14.2972C114.378 14.2972 113.921 13.8514 113.921 13.3065C113.921 12.7616 114.378 12.3158 114.961 12.3158C115.544 12.3158 116 12.7616 116 13.3065ZM115.746 13.3065C115.746 12.8854 115.392 12.5387 114.961 12.5387C114.504 12.5387 114.175 12.8854 114.175 13.3065C114.175 13.7275 114.53 14.0743 114.961 14.0743C115.392 14.0743 115.746 13.7275 115.746 13.3065ZM115.392 13.1331C115.392 13.2817 115.29 13.3808 115.087 13.4056L115.392 13.7523H115.138L114.859 13.4056H114.758V13.7523H114.555V12.8359H114.986C115.265 12.8359 115.392 12.9597 115.392 13.1331ZM114.783 13.0093V13.257H115.011C115.113 13.257 115.189 13.2074 115.189 13.1331C115.189 13.0588 115.113 13.0093 115.011 13.0093H114.783Z" fill="#B8B8BA"/>
<path d="M28.5436 6.69283C28.0113 6.69283 27.0987 6.81666 26.4142 7.48538V3.99318C26.4142 3.62167 26.1101 3.32446 25.7298 3.32446H25.6284C25.2482 3.32446 24.944 3.62167 24.944 3.99318V13.2314C24.944 13.6029 25.2482 13.9001 25.6284 13.9001H25.7298C26.1101 13.9001 26.4142 13.6029 26.4142 13.2314V9.96212C26.4142 8.84759 27.2001 8.0798 28.3408 8.0798C29.4816 8.0798 30.1153 8.74852 30.1153 9.93735V13.2562C30.1153 13.6277 30.4195 13.9249 30.7997 13.9249H30.9011C31.2814 13.9249 31.5856 13.6277 31.5856 13.2562V9.54107C31.5602 7.83212 30.3434 6.69283 28.5436 6.69283Z" fill="#B8B8BA"/>
<path d="M38.3541 9.71449H34.3995C34.6277 8.62473 35.3628 7.98077 36.4275 7.98077C37.4415 7.98077 38.1766 8.64949 38.3541 9.71449ZM36.4528 6.69287C34.3742 6.69287 32.8785 8.22845 32.8785 10.3584C32.8785 12.5132 34.3742 14.024 36.5289 14.024C37.5682 14.024 38.3794 13.7763 39.0892 13.2562C39.2159 13.1572 39.292 13.0333 39.3173 12.8599C39.3427 12.7113 39.292 12.538 39.1906 12.4141C38.9624 12.1169 38.5569 12.0674 38.2527 12.2408C37.7457 12.5627 37.1626 12.7113 36.6049 12.7113C35.4135 12.7113 34.577 12.0179 34.3995 10.8538H39.292C39.6215 10.8538 39.875 10.6061 39.875 10.2841C39.8497 8.20368 38.4555 6.69287 36.4528 6.69287Z" fill="#B8B8BA"/>
<path d="M44.4631 12.6866C43.1449 12.6866 42.2069 11.7206 42.2069 10.3584C42.2069 9.021 43.1702 8.05508 44.4631 8.05508C45.7812 8.05508 46.7192 9.021 46.7192 10.3584C46.7192 11.7206 45.7559 12.6866 44.4631 12.6866ZM47.429 6.84147H47.3276C46.9473 6.84147 46.6431 7.13868 46.6431 7.51019V7.55973C46.0347 6.99008 45.2489 6.69287 44.311 6.69287C42.2576 6.69287 40.7113 8.27798 40.7113 10.3584C40.7113 12.4389 42.2576 14.024 44.311 14.024C45.2489 14.024 46.0347 13.7268 46.6431 13.1572V13.2067C46.6431 13.5782 46.9473 13.8754 47.3276 13.8754H47.429C47.8092 13.8754 48.1134 13.5782 48.1134 13.2067V7.51019C48.1134 7.13868 47.8092 6.84147 47.429 6.84147Z" fill="#B8B8BA"/>
<path d="M50.5473 3.32446H50.4459C50.0657 3.32446 49.7615 3.62167 49.7615 3.99318V13.2314C49.7615 13.6029 50.0657 13.9001 50.4459 13.9001H50.5473C50.9276 13.9001 51.2317 13.6029 51.2317 13.2314V3.99318C51.2317 3.62167 50.9276 3.32446 50.5473 3.32446Z" fill="#B8B8BA"/>
<path d="M57.3155 12.4638C57.0113 12.6124 56.6818 12.6867 56.3776 12.6867C55.6171 12.6867 55.1861 12.2162 55.1861 11.3493V8.15432H57.4422C57.8225 8.15432 58.1267 7.85711 58.1267 7.4856C58.1267 7.11409 57.8225 6.81688 57.4422 6.81688H55.1861V5.35561C55.1861 4.9841 54.8819 4.68689 54.5017 4.68689H54.4003C54.02 4.68689 53.7158 4.9841 53.7158 5.35561V6.81688H52.9047C52.5244 6.81688 52.2202 7.11409 52.2202 7.4856C52.2202 7.85711 52.5244 8.15432 52.9047 8.15432H53.7158V11.3741C53.7158 13.083 54.6284 14.049 56.2508 14.049C56.8339 14.049 57.3915 13.9251 57.8985 13.6527C58.076 13.5784 58.1774 13.4298 58.2281 13.2564C58.2788 13.083 58.2534 12.8849 58.152 12.7363C57.9999 12.4391 57.6197 12.34 57.3155 12.4638Z" fill="#B8B8BA"/>
<path d="M62.9936 6.69283C62.4612 6.69283 61.5486 6.81666 60.8642 7.48538V3.99318C60.8642 3.62167 60.56 3.32446 60.1798 3.32446H60.0784C59.6981 3.32446 59.3939 3.62167 59.3939 3.99318V13.2314C59.3939 13.6029 59.6981 13.9001 60.0784 13.9001H60.1798C60.56 13.9001 60.8642 13.6029 60.8642 13.2314V9.96212C60.8642 8.84759 61.65 8.0798 62.7908 8.0798C63.9315 8.0798 64.5653 8.74852 64.5653 9.93735V13.2562C64.5653 13.6277 64.8694 13.9249 65.2497 13.9249H65.3511C65.7313 13.9249 66.0355 13.6277 66.0355 13.2562V9.54107C66.0355 7.83212 64.8187 6.69283 62.9936 6.69283Z" fill="#B8B8BA"/>
<path d="M73.2603 10.3089C73.2603 11.6216 72.3224 12.5627 71.0295 12.5627C69.7367 12.5627 68.7988 11.6216 68.7988 10.3089C68.7988 8.99624 69.7367 8.05508 71.0295 8.05508C72.3224 8.05508 73.2603 8.99624 73.2603 10.3089ZM73.9447 6.84147H73.8434C73.4631 6.84147 73.1589 7.13868 73.1589 7.51019V7.55973C72.5759 6.99008 71.8154 6.69287 70.9028 6.69287C68.8241 6.69287 67.3285 8.20368 67.3285 10.3089C67.3285 12.4141 68.8241 13.9249 70.9028 13.9249C71.8154 13.9249 72.6012 13.6277 73.1589 13.0829V13.3553C73.1589 14.7423 72.2717 15.5596 70.8014 15.5596C70.1423 15.5596 69.5086 15.3862 68.9255 15.089C68.7734 15.0147 68.596 14.9899 68.4185 15.0395C68.2411 15.089 68.1143 15.2128 68.0129 15.3615L67.9876 15.3862C67.8101 15.7082 67.9369 16.1045 68.2411 16.2778C68.9509 16.6741 69.8635 16.8723 70.776 16.8723C73.1336 16.8723 74.6038 15.5101 74.6038 13.3058V7.51019C74.6292 7.13868 74.325 6.84147 73.9447 6.84147Z" fill="#B8B8BA"/>
<path d="M80.3328 6.74241C80.13 6.71764 79.9019 6.69287 79.623 6.69287C78.8879 6.69287 78.2034 6.96531 77.7218 7.51019C77.7218 7.13868 77.4176 6.84147 77.0373 6.84147H76.9613C76.5811 6.84147 76.2769 7.13868 76.2769 7.51019V13.2315C76.2769 13.603 76.5811 13.9002 76.9613 13.9002H77.0627C77.4429 13.9002 77.7471 13.603 77.7471 13.2315V9.98693C77.7471 8.84763 78.4316 8.05508 79.4202 8.05508C79.623 8.05508 79.8512 8.07984 80.054 8.12938C80.4089 8.20368 80.7891 8.00554 80.8905 7.63403V7.5845C80.9412 7.38636 80.9158 7.18822 80.7891 7.03961C80.6877 6.89101 80.5356 6.79194 80.3328 6.74241Z" fill="#B8B8BA"/>
<path d="M84.9972 12.6866C83.6791 12.6866 82.7411 11.7206 82.7411 10.3584C82.7411 9.021 83.7044 8.05508 84.9972 8.05508C86.3154 8.05508 87.2533 9.021 87.2533 10.3584C87.2533 11.7206 86.2901 12.6866 84.9972 12.6866ZM87.9631 6.84147H87.8617C87.4815 6.84147 87.1773 7.13868 87.1773 7.51019V7.55973C86.5689 6.99008 85.7831 6.69287 84.8451 6.69287C82.7918 6.69287 81.2455 8.27798 81.2455 10.3584C81.2455 12.4389 82.7918 14.024 84.8451 14.024C85.7831 14.024 86.5689 13.7268 87.1773 13.1572V13.2067C87.1773 13.5782 87.4815 13.8754 87.8617 13.8754H87.9631C88.3434 13.8754 88.6476 13.5782 88.6476 13.2067V7.51019C88.6222 7.13868 88.318 6.84147 87.9631 6.84147Z" fill="#B8B8BA"/>
<path d="M96.025 10.3584C96.025 11.6958 95.087 12.6865 93.7688 12.6865C92.4506 12.6865 91.5127 11.7206 91.5127 10.3584C91.5127 9.02096 92.476 8.05503 93.7688 8.05503C95.0617 8.05503 96.025 9.02096 96.025 10.3584ZM96.7347 3.32446H96.6333C96.2531 3.32446 95.9489 3.62167 95.9489 3.99318V7.55968C95.3405 6.99003 94.5547 6.69283 93.6167 6.69283C91.5634 6.69283 90.0171 8.27794 90.0171 10.3584C90.0171 12.4389 91.5634 14.024 93.6167 14.024C94.5547 14.024 95.3405 13.7268 95.9489 13.1571V13.2066C95.9489 13.5782 96.2531 13.8754 96.6333 13.8754H96.7347C97.115 13.8754 97.4192 13.5782 97.4192 13.2066V3.99318C97.3938 3.62167 97.0896 3.32446 96.7347 3.32446Z" fill="#B8B8BA"/>
<path d="M110.322 9.71449L109.511 9.61542C108.421 9.49158 108.268 9.14484 108.268 8.84763C108.268 8.30275 108.826 7.95601 109.713 7.95601C110.271 7.95601 110.905 8.10461 111.437 8.32752C111.767 8.47612 112.147 8.35228 112.324 8.05508C112.4 7.90647 112.426 7.70833 112.375 7.55973C112.324 7.38636 112.198 7.26252 112.046 7.18822C111.386 6.86624 110.55 6.69287 109.688 6.69287C107.914 6.69287 106.773 7.55973 106.773 8.89717C106.773 9.68972 107.204 10.6804 109.206 10.9281L110.018 11.0272C111.31 11.1758 111.31 11.6711 111.31 11.8197C111.31 12.3894 110.677 12.7361 109.587 12.7361C108.826 12.7361 108.218 12.5875 107.685 12.3151C107.381 12.1417 106.976 12.2408 106.798 12.538C106.697 12.6866 106.671 12.8599 106.722 13.0085C106.773 13.1819 106.874 13.3058 107.026 13.4048C107.99 13.9249 109.029 13.9992 109.561 13.9992C111.513 13.9992 112.781 13.1076 112.781 11.7454C112.781 10.9776 112.375 9.98693 110.322 9.71449Z" fill="#B8B8BA"/>
<path d="M104.263 9.71449H100.309C100.537 8.62473 101.272 7.98077 102.337 7.98077C103.351 7.98077 104.086 8.64949 104.263 9.71449ZM102.362 6.69287C100.283 6.69287 98.7877 8.22845 98.7877 10.3584C98.7877 12.5132 100.283 14.024 102.438 14.024C103.477 14.024 104.289 13.7763 104.998 13.2562C105.125 13.1572 105.201 13.0333 105.227 12.8599C105.252 12.7113 105.201 12.538 105.1 12.4141C104.872 12.1417 104.466 12.0674 104.162 12.2408C103.655 12.5627 103.072 12.7113 102.514 12.7113C101.323 12.7113 100.486 12.0179 100.309 10.8538H105.201C105.531 10.8538 105.784 10.6061 105.784 10.2841C105.759 8.20368 104.365 6.69287 102.362 6.69287Z" fill="#B8B8BA"/>
<path d="M14.8804 6.17364C15.0832 6.37178 15.3367 6.47085 15.5902 6.47085C15.8437 6.47085 16.1225 6.37178 16.2999 6.17364L19.9503 2.60714C20.3559 2.21086 20.3559 1.59168 19.9503 1.1954C19.5447 0.799124 18.911 0.799124 18.5054 1.1954L14.8804 4.7619C14.4748 5.15818 14.4748 5.80213 14.8804 6.17364Z" fill="#B8B8BA"/>
<path d="M18.1757 7.88222C17.7954 7.51071 17.1871 7.48594 16.7815 7.83268L11.5087 12.9843C11.2045 13.2815 10.7229 13.2815 10.4441 12.9843C10.1399 12.6871 10.1399 12.2165 10.4441 11.9441L12.3199 10.1113L14.2718 8.20419C14.6774 7.80791 14.6774 7.18873 14.2718 6.79245C13.8663 6.39617 13.2325 6.39617 12.8269 6.79245L11.6862 7.90698L11.5087 8.08035C11.2045 8.37756 10.7482 8.37756 10.4441 8.08035C10.1399 7.78315 10.1399 7.33733 10.4441 7.04013L11.2299 6.27234L14.9816 2.60677C15.3872 2.21049 15.3872 1.5913 14.9816 1.19503C14.576 0.798748 13.9423 0.798748 13.5367 1.19503L11.3313 3.34979C11.1285 3.54793 10.875 3.647 10.6215 3.647C10.368 3.647 10.1399 3.54793 9.93706 3.37455L7.83304 1.31886C6.03322 -0.439621 3.11801 -0.439621 1.34353 1.31886C0.481643 2.16095 0 3.30025 0 4.48909C0 5.67792 0.481643 6.81722 1.34353 7.65931L9.86101 15.9811L9.88636 16.0059C10.0892 16.2041 10.3427 16.3031 10.5962 16.3031C10.8496 16.3031 11.1285 16.2041 11.3059 16.0059L18.1757 9.29396C18.5813 8.89768 18.5813 8.27849 18.1757 7.88222Z" fill="#B8B8BA"/>
<path d="M19.367 7.46137C19.927 7.46137 20.381 7.01782 20.381 6.47068C20.381 5.92353 19.927 5.47998 19.367 5.47998C18.807 5.47998 18.353 5.92353 18.353 6.47068C18.353 7.01782 18.807 7.46137 19.367 7.46137Z" fill="#B8B8BA"/>
</svg>
