<svg width="64" height="64" viewBox="0 0 64 64" fill="none" xmlns="http://www.w3.org/2000/svg">
<circle cx="32" cy="32" r="32" fill="#0202C1"/>
<path d="M41.3826 42.0639C40.0484 37.6733 36.4768 34.7549 31.9241 34.7549C27.3713 34.7549 23.7737 37.6837 22.45 42.1057" stroke="white" stroke-width="1.81695" stroke-miterlimit="10"/>
<path d="M31.7371 31.4919C33.7182 31.4919 35.3243 29.8767 35.3243 27.8844C35.3243 25.892 33.7182 24.2769 31.7371 24.2769C29.7559 24.2769 28.1499 25.892 28.1499 27.8844C28.1499 29.8767 29.7559 31.4919 31.7371 31.4919Z" stroke="white" stroke-width="1.81695" stroke-miterlimit="10"/>
<path d="M44.0569 45.1809L48.6408 50.5582" stroke="white" stroke-width="1.81695" stroke-linecap="round" stroke-linejoin="round"/>
<path d="M36.8868 18.8264C40.1594 20.0688 42.8517 22.4969 44.435 25.6337C46.0182 28.7705 46.378 32.3893 45.4436 35.7793C44.5092 39.1692 42.3482 42.0853 39.385 43.9547C36.4218 45.8241 32.8706 46.5117 29.4291 45.8824C25.9875 45.2531 22.9043 43.3525 20.7851 40.5538C18.6659 37.7551 17.6639 34.2606 17.9758 30.7569C18.2877 27.2531 19.8911 23.9932 22.471 21.6176C25.0509 19.242 28.4208 17.9224 31.9188 17.918" stroke="white" stroke-width="1.81695" stroke-linecap="round" stroke-linejoin="round"/>
</svg>
