<svg width="64" height="64" viewBox="0 0 64 64" fill="none" xmlns="http://www.w3.org/2000/svg">
<circle cx="32" cy="32" r="32" fill="#0202C1"/>
<path d="M23.3605 26.2642C17.9037 26.2642 17.4949 31.4433 17.9795 34.3408C17.9795 34.5074 18.035 34.6689 18.0653 34.8203C18.1713 35.3554 19.4282 34.9263 19.4282 34.9263M26.4195 31.9733C26.4239 32.5701 26.2557 33.1554 25.9351 33.6587C25.6144 34.1621 25.1551 34.562 24.6124 34.8102C24.599 34.8129 24.5853 34.8129 24.572 34.8102C24.1191 35.0066 23.624 35.0856 23.1325 35.0397C22.641 34.9938 22.169 34.8245 21.7603 34.5477C21.105 34.1068 20.6442 33.4309 20.4731 32.6598C20.4282 32.4556 20.4012 32.2478 20.3923 32.0389C20.391 31.9473 20.4081 31.8563 20.4427 31.7715C20.4772 31.6866 20.5286 31.6096 20.5936 31.545C20.6587 31.4805 20.736 31.4297 20.8212 31.3957C20.9063 31.3618 20.9973 31.3453 21.089 31.3474C22.4367 31.3776 23.734 30.6003 23.6129 29.1011C23.6129 29.0102 23.6129 28.9042 23.6482 28.8688C24.1985 28.5256 26.4195 29.5453 26.4195 31.9733ZM25.5109 27.2737C29.2261 27.6574 28.5851 33.4019 28.5851 34.8456C28.5875 34.8741 28.5875 34.9028 28.5851 34.9313C28.4942 35.4361 27.308 35.32 27.308 35.32L25.5109 27.2737Z" stroke="white" stroke-width="1.26197" stroke-linecap="round" stroke-linejoin="round"/>
<path d="M15.0901 47.1622C15.0764 45.7138 15.3209 44.2746 15.812 42.9119C17.1143 39.3784 20.0421 37.2532 23.4444 37.2532C28.0632 37.2532 31.8037 41.1804 31.8037 47.1622" stroke="white" stroke-width="1.26197" stroke-linecap="round" stroke-linejoin="round"/>
<path d="M20.4274 38.2371V40.6853M26.3788 38.2371V40.6853V38.2371Z" stroke="white" stroke-width="1.26197" stroke-linecap="round" stroke-linejoin="round"/>
<path d="M28.1544 44.2854C28.1544 43.8422 27.9784 43.4172 27.6651 43.1039C27.3517 42.7905 26.9267 42.6145 26.4836 42.6145C26.0405 42.6145 25.6155 42.7905 25.3021 43.1039C24.9888 43.4172 24.8127 43.8422 24.8127 44.2854" stroke="white" stroke-width="1.26197" stroke-linecap="round" stroke-linejoin="round"/>
<path d="M39.1693 35.8091C41.0205 35.8091 42.5211 34.3084 42.5211 32.4573C42.5211 30.6061 41.0205 29.1055 39.1693 29.1055C37.3182 29.1055 35.8175 30.6061 35.8175 32.4573C35.8175 34.3084 37.3182 35.8091 39.1693 35.8091Z" stroke="white" stroke-width="1.26197" stroke-linecap="round" stroke-linejoin="round"/>
<path d="M30.0184 49.1449C30.0184 42.936 34.1072 38.8523 39.1501 38.8523C44.1929 38.8523 48.2817 42.936 48.2817 49.1449" fill="#0202C1"/>
<path d="M30.0184 49.1449C30.0184 42.936 34.1072 38.8523 39.1501 38.8523C44.1929 38.8523 48.2817 42.936 48.2817 49.1449" stroke="white" stroke-width="1.26197" stroke-linecap="round" stroke-linejoin="round"/>
<path d="M33.4195 17.8034H28.836C28.6919 17.8047 28.554 17.8626 28.452 17.9645C28.3501 18.0665 28.2922 18.2044 28.2909 18.3486V24.1284C28.2922 24.2725 28.3501 24.4105 28.452 24.5124C28.554 24.6144 28.6919 24.6723 28.836 24.6736H34.2373C34.5877 24.6908 34.9265 24.8044 35.2166 25.0017L37.5537 26.7785C37.791 26.9602 37.9879 26.8593 37.9929 26.5615V25.2187C37.9942 25.0737 38.0528 24.935 38.1558 24.8329C38.2589 24.7308 38.3981 24.6736 38.5431 24.6736H39.4972C39.5688 24.6736 39.6397 24.6594 39.7058 24.632C39.772 24.6047 39.8321 24.5645 39.8827 24.5139C39.9333 24.4632 39.9735 24.4032 40.0009 24.337C40.0283 24.2709 40.0424 24.2 40.0424 24.1284V18.3486C40.0424 18.277 40.0283 18.2061 40.0009 18.1399C39.9735 18.0738 39.9333 18.0137 39.8827 17.9631C39.8321 17.9124 39.772 17.8723 39.7058 17.8449C39.6397 17.8175 39.5688 17.8034 39.4972 17.8034H36.7966M23.9245 15.0876C23.7803 15.089 23.6424 15.1468 23.5404 15.2488C23.4385 15.3507 23.3806 15.4886 23.3793 15.6328V21.4126C23.3806 21.5568 23.4385 21.6947 23.5404 21.7967C23.6424 21.8986 23.7803 21.9565 23.9245 21.9578H24.8836C25.0286 21.9578 25.1678 22.0151 25.2708 22.1172C25.3739 22.2193 25.4324 22.3579 25.4338 22.503V23.8457C25.4338 24.1435 25.6205 24.2243 25.8426 24.0224L27.6952 22.3263C27.9645 22.1059 28.2968 21.9769 28.6442 21.9578H34.5906C34.7348 21.9565 34.8727 21.8986 34.9747 21.7967C35.0766 21.6947 35.1345 21.5568 35.1358 21.4126V15.6328C35.1345 15.4886 35.0766 15.3507 34.9747 15.2488C34.8727 15.1468 34.7348 15.089 34.5906 15.0876H23.9245Z" stroke="white" stroke-width="1.26197" stroke-linecap="round" stroke-linejoin="round"/>
<path d="M20.7659 42.5393C20.7659 42.7177 20.6213 42.8624 20.4429 42.8624C20.2645 42.8624 20.1198 42.7177 20.1198 42.5393C20.1198 42.3609 20.2644 42.2163 20.4429 42.2163C20.6213 42.2163 20.7659 42.3609 20.7659 42.5393Z" fill="white" stroke="white" stroke-width="0.504789"/>
</svg>
