<svg width="51" height="51" viewBox="0 0 51 51" fill="none" xmlns="http://www.w3.org/2000/svg">
<circle cx="25.4514" cy="25.4514" r="20.4514" fill="#3D3E97"/>
<circle cx="25.4514" cy="25.4514" r="22.7234" stroke="#7493FB" stroke-opacity="0.5" stroke-width="4.54394"/>
<path d="M24.7226 17.2422C21.848 17.2422 19.8887 18.4411 18.7027 20.0395L20.8941 22.2438C21.6289 21.277 22.8664 20.4133 24.5422 20.4133C26.218 20.4133 27.5328 21.2125 27.5328 22.6692C27.5328 24.1903 26.1277 24.9637 24.3746 24.9637H22.2605V28.0574H24.3617C26.3082 28.0574 27.8937 28.8695 27.8937 30.4164C27.8937 32.002 26.4887 32.7625 24.7355 32.7625C23.1887 32.7625 21.6805 32.1309 20.6363 31.0352L18.5609 33.3168C19.9273 34.9668 22.1574 35.9336 24.8644 35.9336C28.2804 35.9336 31.516 34.2191 31.516 30.6613C31.516 28.7149 30.3172 27.2711 28.4222 26.5235C30.098 25.7371 31.1164 24.3321 31.1164 22.4242C31.1164 19.3047 28.5254 17.2422 24.7226 17.2422Z" fill="white"/>
</svg>
