<svg width="64" height="64" viewBox="0 0 64 64" fill="none" xmlns="http://www.w3.org/2000/svg">
<circle cx="32" cy="32" r="32" fill="#0202C1"/>
<path d="M32.8425 32.0379H42.3707" stroke="white" stroke-width="1.36834" stroke-linejoin="round"/>
<path d="M40.999 32.0437C40.999 32.6752 41.1863 33.2924 41.5371 33.8175C41.8879 34.3425 42.3866 34.7517 42.97 34.9934C43.5534 35.235 44.1954 35.2983 44.8147 35.1751C45.4341 35.0519 46.003 34.7478 46.4495 34.3013C46.896 33.8548 47.2 33.2858 47.3232 32.6665C47.4464 32.0472 47.3832 31.4052 47.1416 30.8218C46.8999 30.2384 46.4907 29.7398 45.9656 29.389C45.4406 29.0381 44.8233 28.8509 44.1918 28.8509C43.345 28.8509 42.5329 29.1873 41.9342 29.7861C41.3354 30.3848 40.999 31.1969 40.999 32.0437" fill="#0202EA"/>
<path d="M40.999 32.0437C40.999 32.6752 41.1863 33.2924 41.5371 33.8175C41.8879 34.3425 42.3866 34.7517 42.97 34.9934C43.5534 35.235 44.1954 35.2983 44.8147 35.1751C45.4341 35.0519 46.003 34.7478 46.4495 34.3013C46.896 33.8548 47.2 33.2858 47.3232 32.6665C47.4464 32.0472 47.3832 31.4052 47.1416 30.8218C46.8999 30.2384 46.4907 29.7398 45.9656 29.389C45.4406 29.0381 44.8233 28.8509 44.1918 28.8509C43.345 28.8509 42.5329 29.1873 41.9342 29.7861C41.3354 30.3848 40.999 31.1969 40.999 32.0437V32.0437Z" stroke="white" stroke-width="1.36834" stroke-linejoin="round"/>
<path d="M32.593 32.217C35.909 32.217 38.6182 29.6263 38.6182 26.4609V19.6921" stroke="white" stroke-width="1.36834" stroke-linejoin="round"/>
<path d="M35.3762 20.2075C35.3762 20.839 35.5635 21.4563 35.9143 21.9814C36.2651 22.5064 36.7638 22.9156 37.3472 23.1573C37.9306 23.399 38.5725 23.4622 39.1919 23.339C39.8112 23.2158 40.3801 22.9117 40.8266 22.4652C41.2731 22.0187 41.5772 21.4498 41.7004 20.8304C41.8236 20.2111 41.7604 19.5691 41.5188 18.9857C41.2771 18.4023 40.8679 17.9037 40.3428 17.5529C39.8178 17.2021 39.2005 17.0147 38.569 17.0147C37.7222 17.0147 36.9101 17.3511 36.3114 17.9499C35.7126 18.5486 35.3762 19.3607 35.3762 20.2075" fill="white"/>
<path d="M35.3762 20.2075C35.3762 20.839 35.5635 21.4563 35.9143 21.9814C36.2651 22.5064 36.7638 22.9156 37.3472 23.1573C37.9306 23.399 38.5725 23.4622 39.1919 23.339C39.8112 23.2158 40.3801 22.9117 40.8266 22.4652C41.2731 22.0187 41.5772 21.4498 41.7004 20.8304C41.8236 20.2111 41.7604 19.5691 41.5188 18.9857C41.2771 18.4023 40.8679 17.9037 40.3428 17.5529C39.8178 17.2021 39.2005 17.0147 38.569 17.0147C37.7222 17.0147 36.9101 17.3511 36.3114 17.9499C35.7126 18.5486 35.3762 19.3607 35.3762 20.2075V20.2075Z" fill="#0202EA" stroke="white" stroke-width="1.36834" stroke-linejoin="round"/>
<path d="M32.593 31.8703C35.909 31.8703 38.6182 34.4565 38.6182 37.6219V44.3997" stroke="white" stroke-width="1.36834" stroke-linejoin="round"/>
<path d="M35.3762 43.8665C35.3762 43.235 35.5635 42.6177 35.9143 42.0927C36.2651 41.5676 36.7638 41.1584 37.3472 40.9168C37.9306 40.6751 38.5725 40.6119 39.1919 40.735C39.8112 40.8582 40.3801 41.1623 40.8266 41.6089C41.2731 42.0554 41.5772 42.6242 41.7004 43.2435C41.8236 43.8629 41.7604 44.5049 41.5188 45.0883C41.2771 45.6717 40.8679 46.1704 40.3428 46.5212C39.8178 46.872 39.2005 47.0593 38.569 47.0593C37.7222 47.0593 36.9101 46.7229 36.3114 46.1241C35.7126 45.5253 35.3762 44.7132 35.3762 43.8665" fill="white"/>
<path d="M35.3762 43.8665C35.3762 43.235 35.5635 42.6177 35.9143 42.0927C36.2651 41.5676 36.7638 41.1584 37.3472 40.9168C37.9306 40.6751 38.5725 40.6119 39.1919 40.735C39.8112 40.8582 40.3801 41.1623 40.8266 41.6089C41.2731 42.0554 41.5772 42.6242 41.7004 43.2435C41.8236 43.8629 41.7604 44.5049 41.5188 45.0883C41.2771 45.6717 40.8679 46.1704 40.3428 46.5212C39.8178 46.872 39.2005 47.0593 38.569 47.0593C37.7222 47.0593 36.9101 46.7229 36.3114 46.1241C35.7126 45.5253 35.3762 44.7132 35.3762 43.8665V43.8665Z" fill="#0202EA" stroke="white" stroke-width="1.36834" stroke-linejoin="round"/>
<path d="M30.9011 32.0379H21.3684" stroke="white" stroke-width="1.36834" stroke-linejoin="round"/>
<path d="M22.7403 32.0437C22.7403 32.6752 22.553 33.2924 22.2022 33.8175C21.8514 34.3425 21.3528 34.7517 20.7693 34.9934C20.1859 35.235 19.544 35.2983 18.9246 35.1751C18.3053 35.0519 17.7364 34.7478 17.2899 34.3013C16.8434 33.8548 16.5393 33.2858 16.4161 32.6665C16.2929 32.0472 16.3562 31.4052 16.5978 30.8218C16.8395 30.2384 17.2487 29.7398 17.7737 29.389C18.2988 29.0381 18.9161 28.8509 19.5476 28.8509C20.3943 28.8509 21.2064 29.1873 21.8052 29.7861C22.4039 30.3848 22.7403 31.1969 22.7403 32.0437Z" fill="#0202EA"/>
<path d="M22.7403 32.0437C22.7403 32.6752 22.553 33.2924 22.2022 33.8175C21.8514 34.3425 21.3528 34.7517 20.7693 34.9934C20.1859 35.235 19.544 35.2983 18.9246 35.1751C18.3053 35.0519 17.7364 34.7478 17.2899 34.3013C16.8434 33.8548 16.5393 33.2858 16.4161 32.6665C16.2929 32.0472 16.3562 31.4052 16.5978 30.8218C16.8395 30.2384 17.2487 29.7398 17.7737 29.389C18.2988 29.0381 18.9161 28.8509 19.5476 28.8509C20.3943 28.8509 21.2064 29.1873 21.8052 29.7861C22.4039 30.3848 22.7403 31.1969 22.7403 32.0437Z" stroke="white" stroke-width="1.36834" stroke-linejoin="round"/>
<path d="M31.1503 32.2174C27.8389 32.2174 25.1296 29.6267 25.1296 26.4613V19.6926" stroke="white" stroke-width="1.36834" stroke-linejoin="round"/>
<path d="M28.3687 20.2075C28.3687 20.839 28.1815 21.4563 27.8306 21.9814C27.4798 22.5064 26.9811 22.9156 26.3977 23.1573C25.8143 23.399 25.1724 23.4622 24.5531 23.339C23.9337 23.2158 23.3648 22.9117 22.9183 22.4652C22.4717 22.0187 22.1677 21.4498 22.0445 20.8304C21.9213 20.2111 21.9845 19.5691 22.2262 18.9857C22.4678 18.4023 22.877 17.9037 23.4021 17.5529C23.9271 17.2021 24.5445 17.0147 25.1759 17.0147C26.0227 17.0147 26.8348 17.3511 27.4336 17.9499C28.0323 18.5486 28.3687 19.3607 28.3687 20.2075" fill="#0202EA"/>
<path d="M28.3687 20.2075C28.3687 20.839 28.1815 21.4563 27.8306 21.9814C27.4798 22.5064 26.9811 22.9156 26.3977 23.1573C25.8143 23.399 25.1724 23.4622 24.5531 23.339C23.9337 23.2158 23.3648 22.9117 22.9183 22.4652C22.4717 22.0187 22.1677 21.4498 22.0445 20.8304C21.9213 20.2111 21.9845 19.5691 22.2262 18.9857C22.4678 18.4023 22.877 17.9037 23.4021 17.5529C23.9271 17.2021 24.5445 17.0147 25.1759 17.0147C26.0227 17.0147 26.8348 17.3511 27.4336 17.9499C28.0323 18.5486 28.3687 19.3607 28.3687 20.2075V20.2075Z" stroke="white" stroke-width="1.36834" stroke-linejoin="round"/>
<path d="M31.1503 31.8704C27.8389 31.8704 25.1296 34.4566 25.1296 37.622V44.3998" stroke="white" stroke-width="1.36834" stroke-linejoin="round"/>
<path d="M28.3687 43.866C28.3687 43.2346 28.1815 42.6173 27.8306 42.0923C27.4798 41.5672 26.9811 41.158 26.3977 40.9163C25.8143 40.6747 25.1724 40.6114 24.5531 40.7346C23.9337 40.8578 23.3648 41.1619 22.9183 41.6084C22.4717 42.0549 22.1677 42.6238 22.0445 43.2431C21.9213 43.8625 21.9845 44.5044 22.2262 45.0878C22.4678 45.6712 22.877 46.1699 23.4021 46.5208C23.9271 46.8716 24.5445 47.0588 25.1759 47.0588C26.0227 47.0588 26.8348 46.7224 27.4336 46.1237C28.0323 45.5249 28.3687 44.7128 28.3687 43.866" fill="white"/>
<path d="M28.3687 43.866C28.3687 43.2346 28.1815 42.6173 27.8306 42.0923C27.4798 41.5672 26.9811 41.158 26.3977 40.9163C25.8143 40.6747 25.1724 40.6114 24.5531 40.7346C23.9337 40.8578 23.3648 41.1619 22.9183 41.6084C22.4717 42.0549 22.1677 42.6238 22.0445 43.2431C21.9213 43.8625 21.9845 44.5044 22.2262 45.0878C22.4678 45.6712 22.877 46.1699 23.4021 46.5208C23.9271 46.8716 24.5445 47.0588 25.1759 47.0588C26.0227 47.0588 26.8348 46.7224 27.4336 46.1237C28.0323 45.5249 28.3687 44.7128 28.3687 43.866V43.866Z" fill="#0202EA" stroke="white" stroke-width="1.36834" stroke-linejoin="round"/>
<path d="M34.8586 29.0518H28.8835V35.0268H34.8586V29.0518Z" fill="#0202EA"/>
<path d="M34.8586 29.0518H28.8835V35.0268H34.8586V29.0518Z" stroke="white" stroke-width="1.36834" stroke-linejoin="round"/>
</svg>
