<svg width="64" height="64" viewBox="0 0 64 64" fill="none" xmlns="http://www.w3.org/2000/svg">
<circle cx="32" cy="32" r="32" fill="#0202C1"/>
<path d="M32.0196 45.6758C39.5628 45.6758 45.6778 39.5608 45.6778 32.0176C45.6778 24.4743 39.5628 18.3593 32.0196 18.3593C24.4763 18.3593 18.3613 24.4743 18.3613 32.0176C18.3613 39.5608 24.4763 45.6758 32.0196 45.6758Z" stroke="white" stroke-width="1.44992" stroke-linecap="round" stroke-linejoin="round"/>
<path d="M32.038 31.8357C33.8797 31.8357 35.3728 30.3426 35.3728 28.5008C35.3728 26.6591 33.8797 25.166 32.038 25.166C30.1962 25.166 28.7031 26.6591 28.7031 28.5008C28.7031 30.3426 30.1962 31.8357 32.038 31.8357Z" stroke="white" stroke-width="1.44992" stroke-linecap="round" stroke-linejoin="round"/>
<path d="M40.8344 42.4424C39.8678 37.7882 36.2913 34.8594 32.0334 34.8594C27.7755 34.8594 24.2087 37.7979 23.2324 42.4715" stroke="white" stroke-width="1.44992" stroke-linecap="round" stroke-linejoin="round"/>
<path d="M35.418 35.7246V38.7936" stroke="white" stroke-width="1.44992" stroke-linecap="round" stroke-linejoin="round"/>
<path d="M28.8086 35.7246V38.7936" stroke="white" stroke-width="1.44992" stroke-linecap="round" stroke-linejoin="round"/>
<path d="M35.4179 39.9766C35.3031 39.9766 35.191 40.0106 35.0956 40.0743C35.0003 40.138 34.9259 40.2286 34.882 40.3346C34.8381 40.4405 34.8267 40.5572 34.849 40.6697C34.8714 40.7822 34.9267 40.8855 35.0078 40.9666C35.0889 41.0477 35.1922 41.103 35.3047 41.1254C35.4172 41.1477 35.5338 41.1362 35.6398 41.0923C35.7458 41.0484 35.8364 40.9741 35.9001 40.8788C35.9638 40.7834 35.9978 40.6712 35.9978 40.5565C35.9978 40.4027 35.9367 40.2552 35.828 40.1464C35.7192 40.0377 35.5717 39.9766 35.4179 39.9766V39.9766Z" fill="white"/>
<path d="M26.8672 42.3932C26.8672 41.9061 27.0607 41.439 27.4051 41.0946C27.7495 40.7502 28.2167 40.5566 28.7037 40.5566C29.1908 40.5566 29.658 40.7502 30.0024 41.0946C30.3468 41.439 30.5403 41.9061 30.5403 42.3932" stroke="white" stroke-width="1.44992" stroke-linecap="round" stroke-linejoin="round"/>
<path d="M41.8139 43.2846L38.9141 46.1507L38.9576 33.3672L40.0595 34.4063C41.7704 36.0157 45.3759 39.4278 47.0433 41.0373L48.1356 42.0764L44.158 42.318L46.3425 47.2236L44.0178 48.2627L41.8139 43.2846Z" fill="#0202C1" stroke="white" stroke-width="1.44992" stroke-linecap="round" stroke-linejoin="round"/>
</svg>
